<?xml version="1.0" encoding="UTF-8" standalone="no"?>
<!-- Created with Inkscape (http://www.inkscape.org/) -->

<svg
   xmlns:dc="http://purl.org/dc/elements/1.1/"
   xmlns:cc="http://creativecommons.org/ns#"
   xmlns:rdf="http://www.w3.org/1999/02/22-rdf-syntax-ns#"
   xmlns:svg="http://www.w3.org/2000/svg"
   xmlns="http://www.w3.org/2000/svg"
   xmlns:xlink="http://www.w3.org/1999/xlink"
   xmlns:sodipodi="http://sodipodi.sourceforge.net/DTD/sodipodi-0.dtd"
   xmlns:inkscape="http://www.inkscape.org/namespaces/inkscape"
   width="297mm"
   height="210mm"
   viewBox="0 0 1052.3622 744.09451"
   id="svg19310"
   version="1.1"
   inkscape:version="0.91 r13725"
   sodipodi:docname="icons.svg">
  <defs
     id="defs19312">
    <linearGradient
       inkscape:collect="always"
       id="linearGradient8273">
      <stop
         style="stop-color:#000000;stop-opacity:1;"
         offset="0"
         id="stop8301" />
      <stop
         style="stop-color:#000000;stop-opacity:0;"
         offset="1"
         id="stop8303" />
    </linearGradient>
    <linearGradient
       gradientUnits="userSpaceOnUse"
       y2="333.94699"
       x2="217.06984"
       y1="400.48602"
       x1="426.20151"
       id="linearGradient8241"
       xlink:href="#linearGradient8273"
       inkscape:collect="always" />
  </defs>
  <sodipodi:namedview
     id="base"
     pagecolor="#ffffff"
     bordercolor="#666666"
     borderopacity="1.0"
     inkscape:pageopacity="0.0"
     inkscape:pageshadow="2"
     inkscape:zoom="0.70910507"
     inkscape:cx="361.99616"
     inkscape:cy="350.75506"
     inkscape:document-units="px"
     inkscape:current-layer="layer1"
     showgrid="false"
     fit-margin-top="0"
     fit-margin-left="0"
     fit-margin-right="0"
     fit-margin-bottom="0"
     inkscape:window-width="1280"
     inkscape:window-height="1002"
     inkscape:window-x="-8"
     inkscape:window-y="-8"
     inkscape:window-maximized="1"
     units="mm"
     showguides="true"
     inkscape:guide-bbox="true" />
  <metadata
     id="metadata19315">
    <rdf:RDF>
      <cc:Work
         rdf:about="">
        <dc:format>image/svg+xml</dc:format>
        <dc:type
           rdf:resource="http://purl.org/dc/dcmitype/StillImage" />
        <dc:title />
      </cc:Work>
    </rdf:RDF>
  </metadata>
  <g
     inkscape:label="Layer 1"
     inkscape:groupmode="layer"
     id="layer1"
     transform="translate(-269.00372,341.51714)">
    <rect
       style="opacity:1;fill:#ffc664;fill-opacity:0.25490198;stroke:none;stroke-width:1.20000005;stroke-linecap:round;stroke-linejoin:round;stroke-miterlimit:4;stroke-dasharray:none;stroke-opacity:1"
       id="rect41903-5-0"
       width="269.87729"
       height="202.65878"
       x="555.43481"
       y="2.2760959" />
    <rect
       style="opacity:1;fill:#5782c3;fill-opacity:0.25671644;stroke:none;stroke-width:1.20000005;stroke-linecap:round;stroke-linejoin:round;stroke-miterlimit:4;stroke-dasharray:none;stroke-opacity:1"
       id="rect41903-5"
       width="269.87729"
       height="202.65878"
       x="270.50861"
       y="2.2760983" />
    <rect
       style="opacity:1;fill:#f2f2f1;fill-opacity:1;stroke:none;stroke-width:1.20000005;stroke-linecap:round;stroke-linejoin:round;stroke-miterlimit:4;stroke-dasharray:none;stroke-opacity:1"
       id="rect41903-8"
       width="269.87729"
       height="202.65878"
       x="556.43805"
       y="-209.41205" />
    <rect
       style="opacity:1;fill:#e8e8e7;fill-opacity:1;stroke:none;stroke-width:1.20000005;stroke-linecap:round;stroke-linejoin:round;stroke-miterlimit:4;stroke-dasharray:none;stroke-opacity:1"
       id="rect41903"
       width="269.87729"
       height="202.65878"
       x="271.00372"
       y="-209.38596" />
    <text
       xml:space="preserve"
       style="font-style:normal;font-weight:normal;font-size:40px;line-height:125%;font-family:sans-serif;letter-spacing:0px;word-spacing:0px;fill:#000000;fill-opacity:1;stroke:none;stroke-width:1px;stroke-linecap:butt;stroke-linejoin:miter;stroke-opacity:1"
       x="340.87836"
       y="-111.50986"
       id="text18972-5"
       sodipodi:linespacing="125%"><tspan
         sodipodi:role="line"
         id="tspan18974-7"
         x="340.87836"
         y="-111.50986"
         style="font-style:normal;font-variant:normal;font-weight:normal;font-stretch:normal;font-size:25px;font-family:'Open Sans';-inkscape-font-specification:'Open Sans';fill:#141414;fill-opacity:1">web<tspan
   style="fill:#4bbfa8;fill-opacity:1"
   id="tspan23919">fe en</tspan>dum</tspan></text>
    <path
       style="fill:#4bbfa8;fill-opacity:1"
       d="m 412.08298,-111.24855 c -0.34067,-0.50896 -0.77277,-1.11882 -0.96023,-1.35524 -0.18746,-0.23643 -0.34083,-0.46199 -0.34083,-0.50124 0,-0.0393 -0.0883,-0.16722 -0.19617,-0.28436 -0.10789,-0.11714 -0.70449,-0.93457 -1.32577,-1.8165 -1.2997,-1.84498 -1.62025,-2.29169 -2.1881,-3.04931 -0.22583,-0.3013 -0.38599,-0.57793 -0.35591,-0.61472 0.0301,-0.0368 0.35553,0.16093 0.72321,0.43939 1.2396,0.9388 4.32262,2.94315 4.43615,2.88407 0.062,-0.0322 0.34857,-0.46787 0.63697,-0.96809 0.51117,-0.88663 1.57841,-2.60045 2.10083,-3.37362 1.34531,-1.99102 3.44481,-4.83733 4.822,-6.53722 1.0286,-1.26964 3.53513,-4.06077 3.96813,-4.4187 0.12396,-0.10247 0.36954,-0.33473 0.54573,-0.51614 0.63486,-0.65365 2.36557,-2.18992 2.4671,-2.18992 0.0366,0 -0.61535,0.85147 -1.44879,1.89215 -1.34299,1.67693 -3.29353,4.40368 -4.33362,6.05814 -0.19851,0.31575 -0.40811,0.64129 -0.46579,0.7234 -0.48568,0.69147 -3.28896,5.6952 -3.61658,6.45545 -0.0741,0.17194 -0.17667,0.37399 -0.22796,0.44898 -0.14233,0.20817 -1.12147,2.22763 -1.46556,3.0227 -0.16794,0.38805 -0.39105,0.87873 -0.49582,1.09039 -0.10477,0.21167 -0.4862,1.07757 -0.84761,1.92423 -0.36142,0.84665 -0.69197,1.55561 -0.73456,1.57545 -0.0426,0.0198 -0.35616,-0.38034 -0.69682,-0.88929 z"
       id="path19078-5"
       inkscape:connector-curvature="0" />
    <path
       style="fill:#4bbfa8;fill-opacity:1;stroke:#4bbfa8;stroke-width:1.20000005;stroke-miterlimit:4;stroke-dasharray:none;stroke-opacity:1"
       d="m 470.45315,-269.02343 c -0.39799,-0.61137 0.20623,-0.99047 1.57865,-0.99047 l 1.36373,0 0.0938,-7.18084 0.0937,-7.18086 1.98123,-0.0985 1.98123,-0.0985 -0.20003,-1.60355 c -0.18841,-1.51025 -0.0834,-1.78915 1.80486,-4.79334 1.1027,-1.7544 2.40087,-3.43988 2.88483,-3.74552 0.48396,-0.30562 3.08372,-1.30354 5.77724,-2.21757 3.53626,-1.20001 4.87392,-1.79866 4.81313,-2.15404 -0.0463,-0.27069 0.7095,-1.42336 1.6795,-2.56151 2.03375,-2.38623 1.40373,-2.38144 7.27249,-0.0554 2.19957,0.8718 4.58605,1.81396 5.3033,2.0937 l 1.3041,0.50863 0,2.32792 c 0,2.77195 -0.72656,3.81607 -2.48493,3.57107 -0.97522,-0.13588 -1.08262,-0.0245 -2.20933,2.29063 -1.83808,3.77692 -4.23331,7.19603 -6.29321,8.98336 l -1.87957,1.63086 0,5.14171 0,5.1417 1.56491,0 c 1.33307,0 1.56492,0.0978 1.56492,0.66031 0,0.6493 -0.23185,0.66031 -13.88978,0.66031 -8.88473,0 -13.96723,-0.11897 -14.10471,-0.33015 z m 23.75887,-5.0851 c 0.0612,-2.16125 0.0168,-4.2868 -0.0985,-4.72346 -0.27202,-1.02893 -0.77797,-0.88056 -5.05532,1.48247 -4.09316,2.26126 -5.46908,2.41919 -6.99074,0.80237 -1.8273,-1.94159 -1.12722,-4.27373 1.71125,-5.7006 l 1.60583,-0.80723 -5.03138,-0.16508 c -2.76726,-0.0908 -5.14876,-0.11917 -5.29221,-0.0631 -0.14344,0.0561 -0.26081,3.067 -0.26081,6.69085 l 0,6.58881 9.65027,-0.0877 9.65028,-0.0877 0.11135,-3.92956 z m -5.94636,-4.32429 c 1.8317,-0.99872 3.39392,-1.81585 3.47156,-1.81585 0.0777,0 0.83474,-0.29996 1.68243,-0.66658 2.1498,-0.92977 3.69423,-2.30693 5.49116,-4.89644 1.80732,-2.60447 4.49132,-7.56361 4.33482,-8.00932 -0.0597,-0.17006 -1.97783,-1.17256 -4.26251,-2.22775 l -4.15395,-1.91858 -3.66795,1.23023 c -9.06875,3.04167 -8.45693,2.70514 -10.40711,5.72426 -2.32832,3.60451 -2.51077,4.1148 -1.93562,5.41344 0.43977,0.99294 0.578,1.05873 2.22448,1.05873 0.96556,0 1.75558,-0.0939 1.75558,-0.20864 0,-0.11482 -0.33084,-0.71685 -0.73519,-1.33798 -0.40435,-0.62114 -0.67821,-1.16661 -0.60858,-1.21217 0.0696,-0.0456 0.82939,-0.37202 1.68836,-0.72548 0.85896,-0.35346 2.0374,-1.03797 2.61876,-1.52113 l 1.05702,-0.87848 1.38044,0.61966 c 0.75925,0.34082 1.89396,0.62471 2.52158,0.63086 1.63118,0.016 1.70239,0.70326 0.25888,2.49863 -0.6909,0.8593 -1.48816,1.98829 -1.77172,2.50885 -0.28355,0.52057 -0.70713,0.94652 -0.94131,0.94654 -0.23417,3e-5 -1.63857,0.73778 -3.12089,1.63946 -2.39011,1.45387 -2.69512,1.75277 -2.69512,2.64118 0,1.07699 1.03914,2.32241 1.93778,2.32241 0.3007,0 2.04539,-0.81714 3.8771,-1.81585 z m 0.57245,-7.68652 c 0.54839,-0.8568 0.94884,-1.63208 0.88991,-1.72288 -0.059,-0.0907 -0.71005,-0.35856 -1.44691,-0.59502 -1.2545,-0.4026 -1.40504,-0.3778 -2.36601,0.38988 -0.56445,0.45091 -1.3514,0.91779 -1.7488,1.03755 -0.5051,0.15218 -0.65077,0.38261 -0.48405,0.76565 0.13116,0.30136 0.31722,0.80794 0.41346,1.12572 0.13797,0.45556 0.55259,0.57555 1.96015,0.56733 1.75137,-0.0105 1.80404,-0.0399 2.78225,-1.56823 z m 17.8846,-10.34103 0.10277,-1.84999 -3.05871,-1.17262 c -1.68229,-0.64495 -3.93839,-1.54781 -5.01354,-2.00636 l -1.95483,-0.83373 -1.08806,1.06576 c -0.59842,0.58616 -1.08804,1.21559 -1.08804,1.39872 0,0.47574 10.46663,5.39973 11.30212,5.31704 0.59006,-0.0584 0.7111,-0.34933 0.79829,-1.91882 z"
       id="path23821"
       inkscape:connector-curvature="0" />
    <path
       style="fill:#4bbfa8;fill-opacity:1"
       d="m 290.1159,-232.56106 c -1.92967,-4.91583 -3.50852,-9.20053 -3.50852,-9.52157 0,-0.6653 -0.60349,-0.36575 10.452,-5.18532 4.19038,-1.82672 7.81142,-3.32132 8.04675,-3.32132 0.27037,0 0.73953,0.72154 1.27431,1.95974 4.28045,9.91052 6.61308,15.6625 6.5421,16.13186 -0.0627,0.41291 -1.19137,1.07706 -4.26983,2.51202 -7.3766,3.43841 -14.06515,6.36246 -14.55371,6.36246 -0.37545,0 -1.20773,-1.86765 -3.9831,-8.93787 z m 10.93948,4.68008 c 3.63826,-1.65194 7.56595,-3.43625 8.72823,-3.9651 l 2.1132,-0.96156 -1.0851,-2.54127 c -0.59681,-1.39767 -2.06891,-4.86938 -3.27132,-7.71493 -1.20241,-2.84556 -2.33111,-5.4249 -2.5083,-5.73188 -0.30187,-0.52313 -0.66933,-0.40311 -5.86288,1.91471 -3.04744,1.36004 -6.81568,3.00619 -8.37384,3.65811 -1.55817,0.65189 -2.88431,1.24303 -2.94694,1.31362 -0.093,0.10453 6.41881,17.03183 6.55182,17.03183 0.0206,0 3.01688,-1.35159 6.65513,-3.00353 z m 21.42823,-13.06634 c -0.6262,-1.26697 -4.07062,-8.9741 -4.59222,-10.27541 -0.27979,-0.69816 -0.44901,-1.39247 -0.37599,-1.54286 0.0729,-0.15056 0.65012,-0.49781 1.28241,-0.77206 1.31862,-0.57189 1.20945,-0.62099 6.38559,2.87288 l 2.73199,1.84408 -1.43863,-3.19131 c -0.79125,-1.75517 -1.43862,-3.42653 -1.43862,-3.71406 0,-0.49719 0.57648,-0.91312 1.81316,-1.30817 0.50584,-0.16174 0.82696,0.39624 3.34006,5.80216 1.5292,3.28955 2.72515,6.16417 2.65767,6.38804 -0.12323,0.40902 -1.7268,1.15301 -2.48488,1.15301 -0.45515,0 -6.55796,-3.82025 -7.59579,-4.75486 -0.64397,-0.57996 -0.63432,-0.52974 0.2639,1.37091 0.51275,1.08513 1.29306,2.78477 1.73403,3.77694 l 0.80174,1.80403 -1.14753,0.62608 c -1.43701,0.78403 -1.51151,0.78098 -1.93677,-0.0796 z m 1.50634,-0.56787 0.74983,-0.33268 -1.57529,-3.49233 c -1.56951,-3.47965 -1.82014,-4.30839 -1.30287,-4.30839 0.14973,0 2.13534,1.19643 4.41223,2.65878 3.91433,2.51391 4.1846,2.63947 4.96253,2.30513 0.4525,-0.1944 0.86526,-0.39853 0.91725,-0.45346 0.0686,-0.0721 -4.59578,-10.29998 -5.03089,-11.03202 -0.1363,-0.22936 -1.34558,0.35237 -1.34558,0.6473 0,0.18093 0.66518,1.77729 1.47814,3.54762 0.81292,1.7703 1.47811,3.4413 1.47811,3.71337 0,0.98035 -0.33368,0.80427 -6.58633,-3.47518 -1.94901,-1.33392 -2.06778,-1.37374 -3.01783,-1.01144 -0.5439,0.20741 -0.98894,0.4023 -0.98894,0.43306 0,0.0501 2.81548,6.3964 4.34787,9.80032 0.32993,0.73296 0.6341,1.33266 0.67594,1.33266 0.0417,0 0.41343,-0.14981 0.82583,-0.33266 z m 12.69578,-5.97381 c -1.68764,-0.27208 -3.33522,-1.53524 -4.37711,-3.35534 -2.9175,-5.09675 -0.53216,-9.87525 5.15501,-10.32687 1.698,-0.1349 2.18749,-0.0535 3.27869,0.54387 2.10575,1.15298 4.23031,4.65197 4.24482,6.99094 0.0235,3.8953 -3.96226,6.84734 -8.30141,6.1474 z m 4.62816,-1.5139 c 1.31426,-0.80101 1.67493,-1.15309 2.3911,-2.33417 1.53036,-2.52385 -0.33888,-7.1189 -3.51037,-8.62923 -1.5995,-0.76173 -2.48659,-0.81072 -4.19391,-0.23157 -2.6838,0.91029 -4.31115,2.76979 -4.31115,4.92628 0,2.9581 1.8397,5.82929 4.43274,6.91811 1.05682,0.44374 4.00268,0.0751 5.19159,-0.64931 z m -4.69551,-1.12604 c -1.66695,-0.95723 -2.95799,-3.21861 -2.95799,-5.18122 0,-2.68658 3.12686,-4.59549 5.58845,-3.41173 1.4432,0.69404 3.03384,3.39783 3.03384,5.15689 0,1.22252 -0.6552,2.59086 -1.51,3.15351 -1.12259,0.73887 -3.12279,0.87493 -4.1543,0.28248 z m 3.56188,-0.90597 c 0.46984,-0.24978 1.00949,-0.86792 1.22849,-1.40693 0.35535,-0.87472 0.35571,-1.06752 0.004,-2.14121 -0.88471,-2.69984 -2.87363,-4.19181 -4.73439,-3.55152 -1.89889,0.65338 -2.68589,1.97577 -2.27118,3.81621 0.65382,2.90175 3.47447,4.50593 5.77321,3.28345 z m 73.51774,1.54843 c -0.85564,-0.71416 -2.68343,-3.18335 -2.68343,-3.62511 0,-0.11777 -0.48001,-0.44784 -1.06662,-0.733 -0.58665,-0.28509 -1.43962,-0.86875 -1.89551,-1.29683 -0.45587,-0.42808 -0.98981,-0.77837 -1.18653,-0.77837 -0.19682,0 -2.14288,-1.11612 -4.32486,-2.48028 -2.18198,-1.36415 -4.52151,-2.70784 -5.19897,-2.98594 -0.67747,-0.27803 -1.45348,-0.63391 -1.72445,-0.79061 -0.27096,-0.1569 -0.9916,-0.37207 -1.60129,-0.47856 -0.60973,-0.10659 -1.38573,-0.39345 -1.72445,-0.63754 -0.81846,-0.58982 -0.28772,-0.58703 0.82421,0.002 0.48642,0.25869 1.17308,0.47034 1.52594,0.47034 0.69108,0 5.22297,1.79944 5.69793,2.26243 0.49555,0.48303 6.70204,4.32228 6.98742,4.32228 0.1492,0 0.62402,0.33564 1.05531,0.74614 0.43133,0.41036 1.19615,0.93082 1.6996,1.15659 0.58596,0.26278 1.18927,0.89583 1.67634,1.75906 0.41851,0.74174 1.25373,1.78015 1.85604,2.30763 0.60233,0.52749 1.09513,1.09334 1.09513,1.25754 0,0.3782 0.0385,0.39637 -1.01181,-0.4801 z m -136.73731,-16.94347 c -1.76697,-4.5734 -3.15216,-8.51598 -3.07819,-8.7613 0.11642,-0.38638 17.02769,-7.69464 17.80526,-7.69464 0.14705,0 1.10272,2.01072 2.12358,4.46826 1.02085,2.45749 2.59373,6.22091 3.49533,8.36313 1.32441,3.14681 1.57808,3.96771 1.32081,4.27383 -0.36992,0.44025 -17.34438,7.66599 -18.00862,7.66599 -0.33782,0 -1.22201,-2.00982 -3.65817,-8.31527 z m 12.40318,3.53346 8.29391,-3.52751 -3.14559,-7.52543 c -2.53905,-6.07436 -3.23307,-7.50514 -3.59935,-7.42014 -0.81141,0.18809 -15.50864,6.37585 -15.70601,6.61225 -0.18858,0.22599 5.45011,15.38837 5.72291,15.38837 0.0774,0 3.87247,-1.58738 8.43413,-3.52754 z m 92.11066,1.48059 c 1.58449,-2.13374 2.40789,-3.59972 2.01899,-3.59452 -0.10621,0.001 -1.13677,0.1405 -2.28977,0.30851 -1.82629,0.2665 -2.47681,0.21149 -5.05017,-0.42508 -2.94079,-0.7276 -2.95539,-0.72808 -3.3001,-0.10733 -0.38405,0.6916 -0.49281,3.16629 -0.1821,4.14104 0.16997,0.53291 0.12286,0.51592 -0.31336,-0.11329 -0.28243,-0.40712 -0.51332,-1.15246 -0.51332,-1.65623 0,-1.24081 0.62249,-3.05355 1.13446,-3.3036 0.22976,-0.11217 1.65765,0.11218 3.17324,0.49861 2.53404,0.64612 2.95801,0.67263 5.27303,0.33007 1.38459,-0.20481 2.58973,-0.28063 2.67812,-0.16807 0.31002,0.39464 -1.06106,3.07199 -2.15848,4.21501 -2.02134,2.10526 -2.10948,2.08181 -0.47063,-0.12484 z m -17.60233,-4.99709 c -1.01811,-0.46196 -2.10122,-1.62393 -2.9331,-3.14659 -0.29678,-0.54328 -5.9e-4,-0.2747 0.69996,0.63571 0.77488,1.00631 1.58064,1.71507 2.22787,1.95976 1.13658,0.42963 3.40899,0.47411 4.15941,0.0814 0.55903,-0.29253 0.60959,-0.25871 -1.72445,-1.15421 -0.81298,-0.31184 -1.31183,-0.60672 -1.1086,-0.65514 0.56815,-0.13528 4.07341,1.31439 3.99951,1.65432 -0.21212,0.97605 -3.65535,1.38038 -5.3206,0.6248 z m 6.61762,0.14571 c -0.0835,-0.17254 -0.0347,-0.31371 0.10854,-0.31371 0.14365,0 0.26097,0.14087 0.26097,0.31371 0,0.17255 -0.0489,0.31373 -0.10854,0.31373 -0.0596,0 -0.17714,-0.14087 -0.26097,-0.31373 z m 1.23176,-0.31371 c -0.0835,-0.17254 -0.0416,-0.31371 0.0942,-0.31371 0.13558,0 0.31489,0.14087 0.39859,0.31371 0.0835,0.17255 0.0414,0.31371 -0.0942,0.31371 -0.13559,0 -0.31486,-0.14086 -0.39863,-0.31371 z m -53.25221,-0.49141 c -0.0815,-0.27024 -0.0335,-0.63717 0.10622,-0.8154 0.17534,-0.22302 0.24301,-0.0699 0.21742,0.49119 -0.0426,0.93955 -0.11625,1.01312 -0.32385,0.32413 z m 3.26341,0.22004 c -0.0724,-0.14944 -0.42809,-0.1996 -0.79017,-0.11106 -0.4551,0.11068 -0.60455,0.0494 -0.48405,-0.19887 0.096,-0.19737 0.36057,-0.35905 0.58816,-0.35905 0.2277,0 1.77363,-0.72549 3.43561,-1.61223 2.65182,-1.41483 2.98478,-1.67395 2.72004,-2.11652 -0.16586,-0.27729 -0.0179,-0.18429 0.32738,0.20703 0.60422,0.68312 0.66576,0.69178 1.55463,0.21894 0.50899,-0.27059 0.85344,-0.34384 0.76541,-0.16248 -0.0879,0.18149 -0.29867,0.3297 -0.46798,0.3297 -0.16944,0 -0.52311,0.20927 -0.78611,0.46484 -0.42277,0.411 -0.33547,0.41141 0.75355,0.002 0.67748,-0.25388 1.34264,-0.46518 1.47811,-0.46964 0.13559,-0.002 0.0989,-0.12708 -0.0815,-0.27283 -0.41047,-0.33119 1.48856,-1.36886 2.02535,-1.10667 0.33429,0.16323 5.56989,-2.29516 5.56989,-2.61543 0,-0.0811 -0.19387,-0.0531 -0.43112,0.0617 -1.00577,0.48737 0.14454,-0.4592 1.29335,-1.06421 0.795,-0.41873 1.06221,-0.48136 0.75353,-0.17702 -0.263,0.25945 -0.58633,0.472 -0.71851,0.472 -0.13219,0 -0.18594,0.0691 -0.11911,0.15429 0.1209,0.15428 5.45375,-2.68464 7.32138,-3.89739 l 0.98842,-0.64181 2.07999,2.60019 c 1.32697,1.65882 2.6474,2.9698 3.64724,3.6211 0.86197,0.56149 1.29006,0.92643 0.95132,0.81101 -1.37029,-0.46686 -3.1696,-1.98191 -4.86774,-4.09866 l -1.79319,-2.23522 -4.36799,2.50016 c -6.1794,3.53695 -9.77579,5.32676 -15.68081,7.80393 -5.52739,2.31873 -5.4669,2.29855 -5.66498,1.89063 z m 4.04191,-1.88965 c 0.33739,-0.11962 0.50365,-0.30331 0.36954,-0.40876 -0.13416,-0.10528 -0.57645,-0.004 -0.98295,0.22302 -0.78303,0.43919 -0.41597,0.55034 0.61341,0.18578 z m 1.84835,-0.97085 c 0.0862,-0.17758 -0.0125,-0.23046 -0.23183,-0.12335 -0.42675,0.20852 -0.50486,0.43316 -0.15028,0.43316 0.12735,0 0.29953,-0.13975 0.38231,-0.30998 z m 4.80562,-1.88493 c 0.20328,-0.16733 0.25859,-0.30404 0.12322,-0.30404 -0.13558,0 -0.41261,0.13677 -0.61588,0.30404 -0.20329,0.16732 -0.25858,0.30406 -0.12323,0.30406 0.13559,0 0.41261,-0.13677 0.61585,-0.30406 z m -11.66978,2.46364 c 0.50084,-0.70445 4.40009,-3.66581 5.13649,-3.90107 0.40255,-0.12857 0.64897,-0.0112 0.82786,0.392 0.21359,0.4822 0.10801,0.69106 -0.65364,1.29295 -1.62935,1.28775 -4.51576,2.87733 -5.1109,2.81463 -0.53317,-0.0561 -0.54988,-0.1064 -0.19976,-0.59851 z m 2.23985,-0.81968 c 0.84292,-0.55926 1.70211,-1.01686 1.9092,-1.01686 0.2071,0 0.37654,-0.13826 0.37654,-0.30739 0,-0.16919 0.27654,-0.39587 0.61416,-0.50377 0.3378,-0.10808 0.55195,-0.3245 0.4759,-0.48104 -0.12502,-0.25761 -3.70355,2.00474 -4.9085,3.1032 -0.6699,0.61074 -0.28095,0.4092 1.5327,-0.79395 z m -2.76443,-0.0762 c 0.24534,-0.34494 0.48804,-0.62714 0.53951,-0.62714 0.0516,0 -0.0235,0.28213 -0.16997,0.62714 -0.14508,0.34492 -0.38781,0.62709 -0.53952,0.62709 -0.15188,0 -0.0754,-0.28211 0.16998,-0.62709 z m 0.61587,-1.41101 c 0.16854,-0.2587 0.36212,-0.47036 0.42984,-0.47036 0.0677,0 -0.0143,0.21151 -0.18357,0.47036 -0.16854,0.25869 -0.36212,0.47031 -0.42986,0.47031 -0.0677,0 0.0143,-0.21149 0.18359,-0.47031 z m 35.78755,-0.34643 c 0.0818,-0.10435 0.29435,-0.11515 0.47222,-0.0261 0.19652,0.10006 0.13792,0.17423 -0.14884,0.18956 -0.25978,0.0149 -0.40523,-0.0606 -0.32336,-0.16472 z m -1.5448,-0.43768 c -0.32847,-0.27022 -0.32847,-0.30404 0,-0.30404 0.20329,0 0.53579,0.13677 0.73906,0.30404 0.32847,0.27024 0.32847,0.30406 0,0.30406 -0.20329,0 -0.53582,-0.13677 -0.73906,-0.30406 z m -31.28657,-1.98097 c 0,-0.0762 0.63743,-0.74745 1.41654,-1.4916 0.77909,-0.74414 1.28296,-1.14235 1.11972,-0.88489 -0.33468,0.52781 -2.53626,2.5907 -2.53626,2.37649 z m -13.50495,-2.45589 -1.00277,-2.30466 -3.45965,-2.19492 c -2.20059,-1.39614 -3.46063,-2.37111 -3.46235,-2.6791 -0.001,-0.31595 0.47783,-0.67255 1.37905,-1.02582 l 1.38183,-0.54156 2.08532,1.4468 c 1.14693,0.79574 2.16024,1.35306 2.25185,1.23854 0.0915,-0.11441 0.33282,-1.27963 0.53606,-2.58905 l 0.3695,-2.38076 1.34131,-0.5773 c 0.75354,-0.32413 1.4346,-0.45853 1.55419,-0.30627 0.11947,0.15204 -0.0998,2.00921 -0.50043,4.2377 l -0.7133,3.96687 0.93649,1.95669 c 1.12683,2.35451 1.17623,2.96183 0.27626,3.39828 -1.82371,0.88463 -1.88814,0.84895 -2.97347,-1.6454 z m 2.35759,1.10364 c 0.30488,-0.10361 0.55429,-0.30628 0.55429,-0.44927 0,-0.14311 -0.40272,-1.13479 -0.89497,-2.20381 l -0.89499,-1.94362 0.5461,-3.16853 c 0.30032,-1.74266 0.60378,-3.48367 0.6743,-3.8689 0.12537,-0.68406 0.10621,-0.6907 -0.82126,-0.28287 l -0.94953,0.41769 -0.37023,2.63034 c -0.28568,2.03025 -0.46902,2.65452 -0.80322,2.73645 -0.23802,0.0583 -1.37726,-0.54909 -2.53144,-1.34987 -1.99933,-1.38718 -2.14125,-1.43803 -3.00272,-1.07615 l -0.90425,0.37984 3.31322,2.12412 3.31327,2.12411 0.84943,2.06402 c 0.8673,2.10732 0.95782,2.19523 1.922,1.86635 z m 47.60729,0.38794 c 0,-0.0676 0.17212,-0.20703 0.38233,-0.30998 0.21917,-0.10714 0.31813,-0.0546 0.23184,0.12335 -0.14472,0.29811 -0.61415,0.44073 -0.61415,0.18659 z m 31.04021,-2.50844 c 0,-0.068 0.17212,-0.20703 0.38231,-0.31 0.21917,-0.10714 0.31811,-0.0546 0.23182,0.12335 -0.14472,0.2981 -0.61412,0.44064 -0.61412,0.1866 z m -73.9703,-4.18822 c -3.1354,-6.82094 -3.21179,-7.00757 -2.98556,-7.29545 0.12,-0.15242 2.09572,-1.07084 4.39085,-2.04067 l 4.17301,-1.76331 0.44589,0.72875 c 0.86494,1.41354 0.54317,1.83948 -2.30828,3.05568 -1.4471,0.61721 -2.70291,1.21556 -2.79069,1.32968 -0.0879,0.11403 -0.0125,0.56319 0.16747,0.99805 l 0.32719,0.7906 2.58668,-1.07302 c 1.42269,-0.59019 2.76792,-1.07459 2.98946,-1.07649 0.46922,-0.002 1.28798,1.44254 1.12413,1.986 -0.0614,0.20405 -1.28937,0.85536 -2.72855,1.4474 -1.43925,0.59204 -2.61679,1.19475 -2.61679,1.33935 0,0.14459 0.1883,0.64594 0.41815,1.1141 0.23007,0.46822 0.43455,0.88824 0.45465,0.93348 0.0206,0.0453 1.41059,-0.48391 3.09008,-1.17584 1.67946,-0.69191 3.17934,-1.25805 3.33303,-1.25805 0.32276,0 1.10298,1.89399 0.92834,2.25361 -0.11964,0.24645 -8.42732,3.70399 -8.90001,3.70399 -0.14383,0 -1.08843,-1.79903 -2.09916,-3.99786 z m 6.47908,1.45682 c 2.9162,-1.19744 3.86435,-1.71064 3.76565,-2.03816 -0.188,-0.62302 -0.38922,-0.57839 -3.61396,0.80051 -1.59261,0.68103 -3.03236,1.17148 -3.1994,1.0899 -0.46069,-0.22526 -1.49241,-2.80875 -1.33284,-3.33796 0.0788,-0.26167 1.27515,-0.91737 2.73713,-1.50009 2.30392,-0.91833 2.57044,-1.09812 2.36211,-1.5936 -0.21946,-0.5222 -0.39778,-0.48855 -2.74675,0.5183 -1.38157,0.59219 -2.71354,1.07675 -2.95989,1.07675 -0.53041,0 -1.46291,-1.78707 -1.36877,-2.62313 0.05,-0.44388 0.68988,-0.84625 2.65256,-1.668 2.77435,-1.1616 3.2084,-1.47093 2.79767,-1.99373 -0.17857,-0.22748 -1.4325,0.17851 -4.10461,1.3272 l -3.84749,1.65436 0.43182,0.94613 c 3.39267,7.43351 4.11933,8.9419 4.30783,8.9419 0.12179,0 1.97529,-0.72016 4.11894,-1.60038 z m 36.85712,-6.23858 c 0.0614,-2.67312 0.19063,-4.9609 0.28713,-5.08396 0.0965,-0.12298 0.0956,1.42903 -0.001,3.44915 -0.29768,6.14695 -0.40226,6.74679 -0.28509,1.63481 z m -30.10719,3.09507 c -1.25996,-0.36092 -2.71648,-1.84626 -2.50345,-2.55284 0.0842,-0.27877 0.60932,-0.68122 1.16717,-0.89393 0.87165,-0.33231 1.11268,-0.31297 1.71392,0.13937 0.38478,0.28919 1.07048,0.52582 1.52382,0.52556 1.15449,-6e-4 2.54866,-0.94382 2.54866,-1.72409 0,-0.59966 -0.16425,-0.62712 -3.7496,-0.62712 l -3.74959,0 -0.79556,-1.00941 c -1.51525,-1.92253 -0.94717,-4.12712 1.44942,-5.625 1.21331,-0.75826 1.72552,-0.89101 3.43908,-0.89101 1.66025,0 2.13561,0.11553 2.70985,0.65858 1.1271,1.06588 1.04217,1.8466 -0.27036,2.48455 -1.03585,0.50355 -1.16208,0.50593 -1.72955,0.0334 -0.80729,-0.67326 -1.42901,-0.64397 -2.61013,0.12298 -1.82495,1.18496 -0.84482,1.82713 1.94721,1.27575 0.95099,-0.18772 2.18341,-0.34161 2.73868,-0.34161 1.21686,0 2.73545,0.92654 3.2927,2.00905 0.41834,0.81267 0.54017,2.58929 0.21858,3.18818 -0.47297,0.88091 -3.25816,2.90371 -4.44268,3.22657 -1.4659,0.39958 -1.50996,0.39958 -2.89829,0.001 z m 5.09147,-2.03312 c 0.83936,-0.67033 1.64389,-1.45822 1.78787,-1.75094 0.39678,-0.8068 -0.0842,-2.15369 -1.07752,-3.01701 -0.83209,-0.72322 -0.95933,-0.74005 -4.06156,-0.53776 -1.76141,0.11478 -3.39654,0.11366 -3.63366,-0.002 -0.68164,-0.3334 -0.5585,-1.90458 0.19888,-2.53611 0.84352,-0.70348 2.93106,-0.94085 3.69544,-0.42016 0.46578,0.31742 0.73673,0.32635 1.22934,0.0404 0.75706,-0.43905 0.59579,-0.89628 -0.52664,-1.49323 -1.1036,-0.58692 -1.726,-0.5539 -3.62404,0.19253 -2.82157,1.10927 -3.84077,3.08054 -2.48495,4.80627 0.87221,1.11016 1.96123,1.30597 4.75407,0.85481 3.01478,-0.48704 3.71741,-0.22489 3.71741,1.38732 0,0.91365 -0.14006,1.21829 -0.79263,1.72336 -1.26598,0.97995 -2.85078,1.15309 -3.89443,0.42544 -0.72371,-0.50453 -0.99733,-0.5506 -1.55306,-0.26167 -0.64407,0.3349 -0.65446,0.37407 -0.23004,0.86304 0.78568,0.90506 1.6286,1.17379 3.3178,1.05786 1.40943,-0.0967 1.87535,-0.29216 3.17776,-1.33208 z m 11.41394,-8.5546 c 0.0747,-0.15354 -0.1474,-0.36984 -0.49343,-0.48043 -0.94972,-0.30331 -2.63484,-2.63861 -3.2362,-4.48471 -0.2939,-0.90204 -0.44691,-1.70873 -0.34016,-1.79275 0.10657,-0.084 0.32795,0.41591 0.49149,1.11079 0.37002,1.57189 1.70156,3.48391 2.99217,4.29672 l 0.97965,0.61689 1.16611,-0.74339 c 0.64139,-0.40887 1.72042,-1.08184 2.3979,-1.4955 2.83154,-1.72897 4.52516,-2.982 4.24283,-3.13908 -0.16567,-0.0922 0.0206,-0.0822 0.41298,0.0224 0.54766,0.14571 0.66802,0.0952 0.51624,-0.21783 -0.12466,-0.25647 -0.10084,-0.33119 0.0641,-0.20146 0.14419,0.11329 0.85418,0.038 1.57772,-0.16845 1.31119,-0.37333 2.78127,-1.5927 5.40843,-4.48612 0.62711,-0.69065 2.04247,-2.14873 3.1453,-3.24019 1.13901,-1.12732 1.93435,-2.13017 1.84132,-2.32177 -0.0953,-0.1959 -0.0489,-0.24645 0.11158,-0.12075 0.57931,0.45572 -0.34226,1.84424 -3.1031,4.67537 -1.54857,1.58801 -3.24697,3.28303 -3.77418,3.76677 -0.52723,0.48368 -0.95857,0.92155 -0.95857,0.97303 0,0.0516 0.58196,0.0261 1.29334,-0.0568 0.99942,-0.1159 1.67118,-0.46729 2.95619,-1.54582 0.91456,-0.76758 1.6629,-1.49065 1.6629,-1.60674 0,-0.35683 1.70734,-1.96749 2.21849,-2.09278 0.52719,-0.12932 2.26747,-1.59477 3.12929,-2.63528 0.2992,-0.3613 0.66603,-0.65675 0.8152,-0.65675 0.14919,0 0.20239,-0.14124 0.11857,-0.31408 -0.0838,-0.17292 0.13128,-0.45151 0.47816,-0.61938 0.34688,-0.16807 0.6307,-0.44213 0.6307,-0.60951 0,-0.33751 -3.28775,1.63198 -4.06478,2.43504 -0.27095,0.27989 -0.16335,0.0475 0.23947,-0.51648 0.40273,-0.56412 1.01245,-1.10702 1.35493,-1.20645 0.96534,-0.28027 6.60997,-4.09859 8.25961,-5.58717 0.81292,-0.73364 1.75522,-1.4425 2.09395,-1.5753 0.33875,-0.13305 0.89734,-0.49349 1.24128,-0.80157 0.34401,-0.30814 2.20086,-1.56114 4.12639,-2.78461 1.92554,-1.22341 3.50266,-2.39913 3.50476,-2.61267 0.002,-0.27469 0.067,-0.26132 0.21977,0.046 0.1723,0.34643 0.27389,0.29663 0.50177,-0.24495 0.15708,-0.37369 0.41849,-0.64835 0.58078,-0.61037 0.16245,0.038 0.86035,-0.19476 1.55125,-0.51717 0.91416,-0.42661 1.32369,-0.81385 1.50411,-1.42229 0.19211,-0.64834 0.98882,-1.32596 3.54767,-3.01796 4.71441,-3.11731 6.02144,-4.25321 6.88256,-5.98155 0.40594,-0.81476 0.69264,-1.6321 0.63708,-1.81634 -0.0555,-0.18429 0.0998,-0.35424 0.34507,-0.37777 0.41811,-0.0401 0.42259,0.0298 0.0715,1.11172 -0.20594,0.63493 -0.54347,1.39658 -0.75003,1.69246 -0.34825,0.49889 -0.32408,0.51814 0.33248,0.26538 0.3894,-0.14981 1.7339,-0.93273 2.98783,-1.7395 3.70355,-2.38298 3.05078,-1.47986 -1.12159,1.55169 -2.12746,1.54575 -4.81037,3.50346 -5.96208,4.35044 -1.15166,0.847 -2.68472,1.94404 -3.40679,2.43792 -0.722,0.49387 -1.62137,1.17764 -1.99859,1.51955 -0.3772,0.34195 -0.75645,0.53168 -0.84276,0.4218 -0.31282,-0.39812 -0.1406,1.33569 0.20859,2.09966 0.523,1.14439 0.98284,2.62479 0.91118,2.93345 -0.0342,0.14757 0.0621,0.45879 0.2139,0.69178 0.15188,0.23305 0.19417,0.59267 0.0939,0.7993 -0.11553,0.23789 -0.0779,0.29364 0.10209,0.15204 0.24918,-0.19589 0.39449,0.18429 0.22271,0.58367 -0.0339,0.0788 0.11946,0.32562 0.3403,0.54876 0.68261,0.68861 1.25655,2.04802 0.96241,2.27941 -0.3165,0.24904 -0.0998,0.79321 0.31308,0.78644 0.17625,-0.002 0.14598,-0.12596 -0.0761,-0.30888 -0.31962,-0.26281 -0.31406,-0.30481 0.0408,-0.30889 0.53165,-0.004 0.69828,0.61356 0.37801,1.40619 -0.21975,0.54375 -0.20298,0.57415 0.12627,0.22859 0.31785,-0.33342 0.40103,-0.29513 0.50996,0.23528 0.0851,0.41411 0.0125,0.63374 -0.21624,0.63374 -0.19062,0 -0.34645,0.14311 -0.34645,0.31781 0,0.1746 -0.49239,0.62208 -1.09416,0.99422 -0.90914,0.56221 -1.15918,0.60803 -1.47812,0.27097 -0.57273,-0.60501 -0.47446,-0.91108 0.47832,-1.48935 0.47421,-0.28771 0.86389,-0.67359 0.86599,-0.85722 0.001,-0.19811 0.0806,-0.17963 0.19329,0.0457 0.13649,0.27357 0.27331,0.20815 0.49101,-0.2353 0.24977,-0.50938 0.23741,-0.61461 -0.0736,-0.61461 -0.20624,0 -0.71017,-0.45856 -1.11967,-1.01903 l -0.74461,-1.0191 0.50169,1.18543 c 0.6512,1.53854 0.63709,1.68822 -0.21241,2.24732 -0.66372,0.43691 -0.7637,0.42148 -1.4165,-0.21855 -0.45118,-0.44247 -0.58186,-0.49615 -0.36537,-0.15019 0.18536,0.29625 0.27891,0.82164 0.208,1.16747 -0.0765,0.37275 -0.005,0.62877 0.16801,0.62877 0.44997,0 0.86617,0.64961 0.72217,1.12726 -0.10622,0.35237 -0.27361,0.34606 -0.99231,-0.0371 -0.47553,-0.25276 -0.94808,-0.39412 -1.05013,-0.31371 -0.10209,0.0803 -0.1526,-0.23456 -0.11266,-0.69948 0.0833,-0.96291 -0.30809,-1.73776 -0.72437,-1.43505 -0.15422,0.1118 -0.1986,0.0889 -0.0992,-0.0509 0.0994,-0.14012 -0.0125,-0.45521 -0.24624,-0.70065 -0.25448,-0.26576 -0.27801,-0.34902 -0.0577,-0.20591 0.30538,0.19848 0.31643,0.15652 0.0638,-0.24088 -0.16836,-0.26465 -0.22358,-0.60444 -0.12323,-0.75536 0.1003,-0.15093 -0.0297,-0.0673 -0.2889,0.18578 -0.44659,0.43574 -0.45505,0.4208 -0.16012,-0.28323 0.19476,-0.46544 0.21006,-0.66368 0.0403,-0.53025 -0.14884,0.11739 -0.27273,0.0298 -0.27479,-0.19736 -0.002,-0.2981 -0.0688,-0.28176 -0.24272,0.0598 -0.13701,0.26985 -0.24036,0.31409 -0.24242,0.10416 -0.001,-0.20144 -0.0779,-0.61263 -0.1689,-0.9137 -0.12215,-0.4052 -0.0792,-0.47998 0.16514,-0.2877 0.23947,0.18846 0.28801,0.12 0.17678,-0.24829 -0.12824,-0.42549 -0.005,-0.4036 0.75878,0.1349 0.50154,0.3535 0.77332,0.46017 0.60399,0.23678 -0.35227,-0.46421 -0.41582,-1.2601 -0.0912,-1.14269 0.35127,0.12708 1.78112,-1.33693 1.62329,-1.66204 -0.23653,-0.48741 -0.54517,-0.34904 -1.4328,0.64296 -0.46295,0.51739 -1.03955,0.94069 -1.28137,0.94069 -0.24183,0 -0.35652,-0.10584 -0.25478,-0.23529 0.10173,-0.12931 0.31412,-0.23528 0.47218,-0.23528 0.39677,0 0.36376,-1.48316 -0.0367,-1.65309 -0.17822,-0.0758 -0.38491,0.15801 -0.45917,0.51908 -0.0743,0.36129 -0.22888,0.58263 -0.34391,0.49217 -0.11498,-0.0904 -0.0806,-0.52332 0.0765,-0.96193 0.20858,-0.58272 0.43076,-0.7621 0.82504,-0.66616 0.29676,0.0721 0.78272,-0.1023 1.07992,-0.3875 0.45331,-0.43522 0.51288,-0.70477 0.36998,-1.67428 -0.19711,-1.33771 -0.31138,-1.38617 -1.19086,-0.50571 -0.68421,0.68509 -0.86012,1.69798 -0.34115,1.96451 0.18388,0.0945 0.13451,0.16808 -0.12323,0.1828 -0.27332,0.0149 -0.43111,-0.20482 -0.43111,-0.60238 0,-0.34494 -0.11087,-0.62711 -0.24626,-0.62711 -0.13559,0 -0.24624,0.22116 -0.24624,0.49148 0,0.34158 -0.14382,0.43331 -0.47197,0.3007 -0.25949,-0.10528 -0.54118,-0.0479 -0.62577,0.12596 -0.0847,0.17441 -1.11936,0.9913 -2.29948,1.81573 -1.18013,0.82441 -2.33157,1.64005 -2.55885,1.81252 -0.22711,0.17254 -1.16951,0.86816 -2.09395,1.54608 -0.92445,0.67794 -2.25753,1.70093 -2.96234,2.27335 -0.70483,0.57239 -1.34312,1.04072 -1.4184,1.04072 -0.19713,0 -4.73522,3.87792 -6.04555,5.16612 -0.60971,0.59943 -1.24712,1.09327 -1.41652,1.09748 -0.16944,0.002 -0.30791,0.12485 -0.30791,0.26799 0,0.14347 -0.74724,0.81342 -1.66045,1.4894 -0.91326,0.67594 -2.3267,1.87571 -3.14101,2.66617 -2.18742,2.12336 -2.48697,2.2677 -5.17577,2.49463 -2.48486,0.20963 -6.70609,1.58708 -7.07357,2.3081 -0.0967,0.18957 -0.26302,0.35682 -0.36954,0.37194 -0.38064,0.0531 -1.18459,0.57178 -1.49857,0.96662 -0.17571,0.2208 -0.86778,0.60897 -1.53807,0.86231 -0.67026,0.25351 -1.83553,0.89153 -2.58943,1.41815 -0.75391,0.52665 -1.30969,0.83179 -1.23511,0.67811 z m 49.75712,-20.7722 c 0.49481,-0.28695 0.57021,-0.47034 0.3796,-0.92367 -0.20035,-0.47644 -0.3541,-0.51402 -0.97535,-0.23864 -0.8065,0.35795 -0.88987,0.57365 -0.44192,1.14385 0.35806,0.45577 0.28537,0.4545 1.03767,0.0186 z m -2.2725,-0.16956 c -0.17768,-0.0907 -0.39032,-0.0796 -0.47217,0.0261 -0.0819,0.10434 0.0636,0.1785 0.32333,0.16471 0.28714,-0.0149 0.34535,-0.0892 0.14884,-0.18957 z m 0.0664,-1.37525 c -0.0779,-0.16062 -0.2736,-0.28064 -0.43512,-0.26726 -0.21004,0.0186 -0.20533,0.0699 0.0179,0.18354 0.17033,0.0874 0.23624,0.30963 0.14687,0.49406 -0.0967,0.19962 -0.0462,0.24348 0.12591,0.10826 0.15851,-0.12484 0.22478,-0.35832 0.14687,-0.51877 z m 1.78134,-0.7379 c -0.0494,-0.18578 -0.35586,-0.34049 -0.68135,-0.34383 -0.61736,-0.004 -0.95668,-0.86814 -0.48723,-1.23745 0.14293,-0.11218 0.26008,-0.4162 0.26008,-0.67487 0,-0.2587 -0.11266,-0.3817 -0.25038,-0.27357 -0.13773,0.10807 -0.1874,0.32672 -0.11033,0.48525 0.0768,0.15875 -0.0125,0.21409 -0.19623,0.1241 -0.18506,-0.0908 -0.55101,0.1472 -0.81343,0.5278 -0.26243,0.38063 -0.32671,0.57959 -0.14292,0.44215 0.258,-0.19292 0.29655,-0.0803 0.16854,0.49485 -0.10854,0.48855 -0.0885,0.60348 0.0587,0.33415 0.17266,-0.31557 0.3191,-0.22675 0.63374,0.38426 0.36243,0.70404 0.48006,0.75377 1.02972,0.43499 0.34129,-0.19811 0.58024,-0.51193 0.53097,-0.69778 z m 0.20006,-1.12182 c -0.0836,-0.17255 -0.20123,-0.31373 -0.26096,-0.31373 -0.0596,0 -0.10854,0.14124 -0.10854,0.31373 0,0.17254 0.11732,0.31371 0.26096,0.31371 0.14329,0 0.1924,-0.14087 0.10854,-0.31371 z m 0.0564,-2.6059 c -0.16514,-0.62999 -0.67248,-0.58363 -0.67248,0.0613 0,0.45094 0.11355,0.58786 0.37994,0.4578 0.20888,-0.10211 0.34058,-0.33562 0.29242,-0.51929 z m -2.36265,-0.18918 c 0.31986,-0.33007 0.50192,-0.70196 0.4045,-0.82641 -0.21183,-0.27096 -1.4242,0.68267 -1.4242,1.1202 0,0.47443 0.3818,0.36464 1.0197,-0.29366 z m 2.10267,-1.59483 c -0.3515,-1.06078 -0.65794,-1.48858 -0.66265,-0.92496 -0.002,0.38666 -0.0394,0.38433 -0.24242,-0.0149 -0.20417,-0.40196 -0.23947,-0.39058 -0.24271,0.0784 -0.001,0.30183 0.11445,0.54879 0.25919,0.54879 0.14597,0 0.19711,0.26426 0.11445,0.59461 -0.11911,0.47759 -0.0321,0.58557 0.44272,0.5487 0.53233,-0.0414 0.5652,-0.12336 0.33121,-0.82978 z m -1.00274,-2.42351 c -0.0819,-0.10453 -0.14006,0.0811 -0.1295,0.4115 0.0125,0.36538 0.0702,0.43962 0.14884,0.18958 0.0713,-0.22636 0.0627,-0.49682 -0.0206,-0.601 z m -3.96725,29.53788 c -2.72972,-0.66843 -4.59624,-1.5281 -5.91869,-2.72595 -2.63377,-2.38547 -2.67534,-2.39757 -8.64342,-2.50182 -2.96577,-0.0516 -5.70646,0.0186 -6.09042,0.15354 -0.43816,0.1554 -0.64295,0.13416 -0.54997,-0.0572 0.26331,-0.5421 2.81363,-1.02645 5.34492,-1.01499 l 2.46774,0.0112 2.3838,-1.69346 c 1.31106,-0.9314 3.49233,-2.279 4.84725,-2.99464 1.35493,-0.71566 2.58287,-1.42546 2.72875,-1.57742 0.35131,-0.36575 2.07509,-1.27801 2.07509,-1.09799 0,0.0773 -2.43886,1.72383 -5.4197,3.6586 -2.98085,1.93478 -5.41971,3.63708 -5.41971,3.78291 0,0.14571 0.63743,0.24642 1.41649,0.22377 1.26173,-0.0373 1.32231,-0.0665 0.5543,-0.27248 -0.85943,-0.23046 -0.44897,-0.47172 0.61587,-0.3624 0.35478,0.0373 0.40185,-0.0261 0.16836,-0.21708 -0.23006,-0.18993 0.0924,-0.54249 1.1086,-1.21225 0.78819,-0.51953 2.31171,-1.52832 3.38563,-2.24176 1.07394,-0.71345 2.07165,-1.29289 2.21716,-1.28765 0.14526,0.004 0.043,0.16956 -0.228,0.36501 -0.27096,0.19552 -0.57181,0.50878 -0.66847,0.69597 -0.0967,0.18734 -0.20741,0.29068 -0.24626,0.22971 -0.0806,-0.12633 -1.97721,0.95576 -2.16456,1.23491 -0.0679,0.1008 -0.76062,0.55171 -1.53967,1.00173 -0.77911,0.44997 -1.41654,0.89211 -1.41654,0.98248 0,0.18955 0.59346,-0.0751 1.47811,-0.65959 0.81178,-0.53625 1.11618,-0.51875 0.74981,0.043 -0.16263,0.2494 -0.7893,0.69366 -1.39234,0.98678 l -1.09642,0.53299 0.98026,0.55859 c 0.53916,0.30739 1.663,1.14873 2.49745,1.87002 0.83453,0.72128 2.36426,1.64656 3.39973,2.05632 2.16909,0.85839 6.89779,1.55028 7.27904,1.06503 0.16245,-0.20666 -0.38596,-0.31187 -1.62565,-0.31187 -1.45281,0 -1.90289,-0.10732 -2.01537,-0.48034 -0.0958,-0.31742 0.0571,-0.57822 0.45176,-0.76908 0.80728,-0.39066 3.6289,-0.59979 5.39053,-0.3995 1.32167,0.15019 1.4306,0.22004 1.33532,0.85431 l -0.10389,0.6907 1.99043,-0.40593 c 3.35523,-0.68427 5.30156,-1.2896 8.76505,-2.72599 1.82919,-0.75856 3.37799,-1.32088 3.4418,-1.24953 0.50473,0.56405 -6.02507,3.34143 -10.15526,4.31943 -5.90139,1.39734 -9.42284,1.66515 -12.3787,0.94134 z m 7.82165,-0.66948 c -0.16944,-0.087 -0.44654,-0.087 -0.61591,0 -0.16943,0.087 -0.0306,0.15801 0.30795,0.15801 0.33873,0 0.47731,-0.0714 0.30796,-0.15801 z m -1.7245,-0.9543 c -0.30481,-0.0747 -0.80368,-0.0747 -1.10853,0 -0.30488,0.0747 -0.0553,0.13565 0.55426,0.13565 0.60972,0 0.85915,-0.0609 0.55427,-0.13565 z m -32.17275,-3.77758 c -0.13648,-0.28138 0.97082,-0.50658 4.27355,-0.86964 1.07999,-0.1185 1.09186,-0.1103 0.46063,0.32562 -0.35636,0.24606 -0.9661,0.42883 -1.35493,0.40615 -0.38884,-0.0224 -1.27477,0.068 -1.96875,0.20147 -0.77085,0.14832 -1.31966,0.12335 -1.4105,-0.0635 z m 46.64964,-5.12046 c 0.001,-1.79648 0.098,-3.45507 0.21271,-3.68583 0.12,-0.24122 0.1883,1.05894 0.1603,3.05725 -0.0265,1.91223 -0.12233,3.5708 -0.21271,3.68577 -0.0903,0.11478 -0.16263,-1.26077 -0.16066,-3.05719 z m -67.50387,0.51853 c 0,-0.0859 0.22183,-0.30779 0.4927,-0.49244 0.27096,-0.18466 0.49269,-0.26503 0.49269,-0.17888 0,0.0863 -0.22182,0.30776 -0.49269,0.49242 -0.27096,0.18484 -0.4927,0.26504 -0.4927,0.17888 z m 44.83584,-0.64691 c 0,-0.21226 2.00101,-1.47938 2.11245,-1.33754 0.0518,0.0654 -0.40251,0.4265 -1.00926,0.8017 -0.60677,0.37518 -1.10319,0.61633 -1.10319,0.53584 z m -44.09875,-2.2075 c 0.74415,-1.0291 2.25997,-3.07044 3.36851,-4.5363 1.5503,-2.0501 2.15978,-3.12306 2.64049,-4.64859 0.34374,-1.09082 0.93817,-2.64298 1.32096,-3.44915 0.38283,-0.80623 1.0508,-2.39632 1.48444,-3.53357 0.50223,-1.31723 1.30381,-2.70051 2.20835,-3.81089 1.8567,-2.27931 4.91242,-6.69072 6.37986,-9.21035 0.28919,-0.4964 0.60653,-0.8042 0.70542,-0.68407 0.28273,0.34345 -4.3002,7.38136 -6.86139,10.53678 -0.73251,0.90245 -1.57985,2.44576 -2.18628,3.98204 -0.54462,1.37967 -1.21727,2.91728 -1.4948,3.41689 -0.27742,0.49964 -0.7903,1.79942 -1.13945,2.88843 -0.53479,1.66778 -1.11292,2.59477 -3.66621,5.87845 -3.43564,4.41845 -4.77457,5.95648 -2.7599,3.17033 z m 45.75752,-1.43963 c 0.16711,-0.21447 0.3659,-0.31075 0.44174,-0.21409 0.0756,0.0967 -0.0609,0.27171 -0.30381,0.3896 -0.35114,0.17031 -0.37944,0.13416 -0.13791,-0.17553 z m 21.26918,-1.60727 c -0.009,-0.64671 0.0265,-1.17584 0.0774,-1.17584 0.21948,0 0.30708,1.15599 0.13128,1.72956 -0.14525,0.47389 -0.19505,0.34196 -0.20828,-0.55372 z m -43.04698,-0.42397 c 0.32691,-0.44874 0.74133,-1.40115 0.92091,-2.11648 0.27271,-1.08644 0.34208,-1.17955 0.42117,-0.56536 0.12466,0.96903 -0.37799,2.46767 -1.01986,3.03992 -0.80797,0.72027 -0.97366,0.53617 -0.32222,-0.35797 z m 40.44295,-6.70951 c -0.086,-0.34494 -0.0944,-0.87405 -0.0179,-1.17588 0.17893,-0.71455 2.33919,-2.18915 2.56372,-1.74984 0.091,0.17758 0.44242,0.5061 0.78117,0.7295 l 0.61587,0.40611 -0.4693,-0.67274 c -0.25803,-0.3702 -0.36591,-0.67273 -0.23949,-0.67273 0.12627,0 0.3985,0.25089 0.60476,0.55743 0.33897,0.50388 0.32646,0.62111 -0.13003,1.22071 -0.62977,0.82717 -2.41737,1.98454 -3.06526,1.98454 -0.26949,0 -0.55553,-0.27914 -0.64225,-0.6271 z m 2.34035,-2.71808 c 0,-0.0736 -0.49884,0.30292 -1.10857,0.83673 -0.60972,0.53393 -1.10859,1.11457 -1.10859,1.29028 0,0.17571 0.49887,-0.20072 1.10859,-0.83669 0.60973,-0.63596 1.10857,-1.21659 1.10857,-1.29032 z m 0.60299,1.0596 c -0.31011,-0.22079 -0.57366,-0.0892 -1.06015,0.53001 l -0.64738,0.82402 1.06012,-0.53001 c 0.87253,-0.43626 0.98709,-0.58209 0.64741,-0.82402 z m -21.3749,-0.37966 c 0.15834,-1.00875 0.26568,-1.27895 0.42517,-1.07136 0.0554,0.0717 -0.0512,0.55399 -0.23622,1.07136 l -0.33666,0.94067 0.14759,-0.94067 z m -11.50007,-3.40979 c 0,-0.11813 0.44102,-0.92475 0.98003,-1.79271 0.53903,-0.86792 1.11617,-2.16894 1.2826,-2.89119 0.28803,-1.25041 0.30698,-1.26999 0.39429,-0.41096 0.0659,0.64954 -0.15797,1.36341 -0.79974,2.54957 -0.87819,1.62296 -1.85718,2.96467 -1.85718,2.54529 z m 13.79565,-2.642 c 0.83728,-0.91486 1.20461,-1.08131 0.87126,-0.39482 -0.0901,0.18503 -0.51674,0.5617 -0.94846,0.8368 l -0.78504,0.50016 0.86224,-0.94214 z m -10.34674,-3.28847 c 0,-0.10304 0.23712,-0.69907 0.52696,-1.32429 0.4556,-0.98278 0.50688,-1.44205 0.37833,-3.38872 -0.0818,-1.2385 -0.22299,-2.60458 -0.31414,-3.0357 -0.12681,-0.60057 -0.0965,-0.70229 0.12968,-0.43494 0.47077,0.55622 0.82279,4.60389 0.52343,6.01887 -0.21182,1.0018 -1.24447,2.79792 -1.24447,2.16478 z m 30.79384,-1.60077 c 0,-0.0676 0.17213,-0.20704 0.38231,-0.30998 0.21918,-0.10696 0.31812,-0.0546 0.23182,0.12335 -0.14472,0.29811 -0.61413,0.4407 -0.61413,0.18659 z m -27.95094,-2.15006 c -0.40535,-3.0449 -0.53124,-4.62503 -0.36847,-4.62503 0.29958,0 0.45034,0.78793 0.62785,3.28134 0.16854,2.36587 -0.004,3.26037 -0.25947,1.34369 z m 18.25215,-1.44163 c 0.21859,-0.57732 0.41335,-1.44949 0.43264,-1.93817 0.0562,-1.42498 0.39753,-1.47712 0.39753,-0.0605 0,0.92941 -0.17122,1.53445 -0.61386,2.16879 l -0.61386,0.87975 0.39755,-1.04965 z"
       id="path23904"
       inkscape:connector-curvature="0" />
    <path
       style="fill:#4bbfa8;fill-opacity:1;stroke:#4bbfa8;stroke-width:0.9037382;stroke-opacity:1"
       d="m 297.9368,-111.39859 0,-7.14886 3.12051,0 c 2.45305,0 3.12052,-0.0878 3.12052,-0.41051 0,-0.22578 1.26714,-1.36514 2.81588,-2.5319 l 2.81589,-2.12138 4.12555,0 4.12557,0 2.86588,2.28414 2.86587,2.28414 0,7.39662 0,7.39662 -12.92783,0 -12.92784,0 z m 17.46719,1.11702 0.0815,-4.98932 -8.32856,0 -8.32854,0 0,5.06849 0,5.06849 8.24706,-0.0793 8.24708,-0.0793 z m 7.42826,-1.62389 0.08,-6.61319 -2.60289,-2.09949 -2.60286,-2.09948 -3.74707,0 -3.74707,0 -2.64575,2.01062 -2.64574,2.01062 5.72093,0.0809 5.72094,0.0809 0,6.7057 0,6.70572 3.19481,-0.0846 3.19481,-0.0846 z m -7.36114,-5.00371 c 0,-0.38652 -1.12273,-0.44681 -8.32137,-0.44681 -7.19862,0 -8.32136,0.0603 -8.32136,0.44681 0,0.38651 1.12274,0.4468 8.32136,0.4468 7.19864,0 8.32137,-0.0603 8.32137,-0.4468 z m -4.01208,-9.87891 c -3.491,-1.84875 -4.20873,-6.20655 -1.44827,-8.79346 3.46233,-3.24463 9.02664,-0.83518 9.02664,3.9087 0,1.72858 -0.44569,2.77424 -1.68231,3.94695 -1.55515,1.47476 -4.11371,1.88172 -5.89606,0.93781 z m 4.2082,-0.88697 c 3.13252,-1.48986 3.32109,-6.0227 0.32667,-7.85258 -3.81646,-2.33223 -8.32876,2.04453 -6.13718,5.95284 1.1825,2.10878 3.66469,2.92032 5.81051,1.89974 z"
       id="path23902"
       inkscape:connector-curvature="0"
       sodipodi:nodetypes="ccsssccccccccccccccccccccccccccccccccccssssssssssssss" />
    <text
       xml:space="preserve"
       style="font-style:normal;font-weight:normal;font-size:40px;line-height:125%;font-family:sans-serif;letter-spacing:0px;word-spacing:0px;fill:#000000;fill-opacity:1;stroke:none;stroke-width:1px;stroke-linecap:butt;stroke-linejoin:miter;stroke-opacity:1"
       x="630.22113"
       y="-106.89614"
       id="text18972-5-2"
       sodipodi:linespacing="125%"><tspan
         sodipodi:role="line"
         id="tspan18974-7-5"
         x="630.22113"
         y="-106.89614"
         style="font-style:normal;font-variant:normal;font-weight:normal;font-stretch:normal;font-size:25px;font-family:'Open Sans';-inkscape-font-specification:'Open Sans';fill:#141414;fill-opacity:1">web<tspan
   style="fill:#4bbfa8;fill-opacity:1"
   id="tspan23919-8">fe en</tspan>dum</tspan></text>
    <path
       style="fill:#4bbfa8;fill-opacity:1"
       d="m 701.42573,-106.63482 c -0.34067,-0.50896 -0.77277,-1.11882 -0.96023,-1.35524 -0.18746,-0.23643 -0.34083,-0.46199 -0.34083,-0.50124 0,-0.0393 -0.0883,-0.16722 -0.19617,-0.28436 -0.10789,-0.11714 -0.70449,-0.93457 -1.32577,-1.8165 -1.2997,-1.84498 -1.62025,-2.29169 -2.1881,-3.04931 -0.22583,-0.3013 -0.38599,-0.57793 -0.35591,-0.61472 0.0301,-0.0368 0.35553,0.16093 0.72321,0.43939 1.2396,0.9388 4.32262,2.94315 4.43615,2.88407 0.062,-0.0322 0.34857,-0.46787 0.63697,-0.96809 0.51117,-0.88663 1.57841,-2.60045 2.10083,-3.37362 1.34531,-1.99102 3.44481,-4.83733 4.822,-6.53722 1.0286,-1.26964 3.53513,-4.06077 3.96813,-4.4187 0.12396,-0.10247 0.36954,-0.33473 0.54573,-0.51614 0.63486,-0.65365 2.36557,-2.18992 2.4671,-2.18992 0.0366,0 -0.61535,0.85147 -1.44879,1.89215 -1.34299,1.67693 -3.29353,4.40368 -4.33362,6.05814 -0.19851,0.31575 -0.40811,0.64129 -0.46579,0.7234 -0.48568,0.69147 -3.28896,5.6952 -3.61658,6.45545 -0.0741,0.17194 -0.17667,0.37399 -0.22796,0.44898 -0.14233,0.20817 -1.12147,2.22763 -1.46556,3.0227 -0.16794,0.38805 -0.39105,0.87873 -0.49582,1.09039 -0.10477,0.21167 -0.4862,1.07757 -0.84761,1.92423 -0.36142,0.84665 -0.69197,1.55561 -0.73456,1.57545 -0.0426,0.0198 -0.35616,-0.38034 -0.69682,-0.88929 z"
       id="path19078-5-2"
       inkscape:connector-curvature="0" />
    <path
       style="fill:#4bbfa8;fill-opacity:1;stroke:#4bbfa8;stroke-width:1.20000005;stroke-miterlimit:4;stroke-dasharray:none;stroke-opacity:1"
       d="m 584.19908,-100.06726 c -0.39799,-0.61137 0.20623,-0.99047 1.57865,-0.99047 l 1.36373,0 0.0938,-7.18084 0.0937,-7.18086 1.98123,-0.0985 1.98123,-0.0985 -0.20003,-1.60355 c -0.18841,-1.51025 -0.0834,-1.78915 1.80486,-4.79334 1.1027,-1.7544 2.40087,-3.43988 2.88483,-3.74552 0.48396,-0.30562 3.08372,-1.30354 5.77724,-2.21757 3.53626,-1.20001 4.87392,-1.79866 4.81313,-2.15404 -0.0463,-0.27069 0.7095,-1.42336 1.6795,-2.56151 2.03375,-2.38623 1.40373,-2.38144 7.27249,-0.0554 2.19957,0.8718 4.58605,1.81396 5.3033,2.0937 l 1.3041,0.50863 0,2.32792 c 0,2.77195 -0.72656,3.81607 -2.48493,3.57107 -0.97522,-0.13588 -1.08262,-0.0245 -2.20933,2.29063 -1.83808,3.77692 -4.23331,7.19603 -6.29321,8.98336 l -1.87957,1.63086 0,5.14171 0,5.1417 1.56491,0 c 1.33307,0 1.56492,0.0978 1.56492,0.66031 0,0.649299 -0.23185,0.660309 -13.88978,0.660309 -8.88473,0 -13.96723,-0.11897 -14.10471,-0.330149 z m 23.75887,-5.0851 c 0.0612,-2.16125 0.0168,-4.2868 -0.0985,-4.72346 -0.27202,-1.02893 -0.77797,-0.88056 -5.05532,1.48247 -4.09316,2.26126 -5.46908,2.41919 -6.99074,0.80237 -1.8273,-1.94159 -1.12722,-4.27373 1.71125,-5.7006 l 1.60583,-0.80723 -5.03138,-0.16508 c -2.76726,-0.0908 -5.14876,-0.11917 -5.29221,-0.0631 -0.14344,0.0561 -0.26081,3.067 -0.26081,6.69085 l 0,6.58881 9.65027,-0.0877 9.65028,-0.0877 0.11135,-3.92956 z m -5.94636,-4.32429 c 1.8317,-0.99872 3.39392,-1.81585 3.47156,-1.81585 0.0777,0 0.83474,-0.29996 1.68243,-0.66658 2.1498,-0.92977 3.69423,-2.30693 5.49116,-4.89644 1.80732,-2.60447 4.49132,-7.56361 4.33482,-8.00932 -0.0597,-0.17006 -1.97783,-1.17256 -4.26251,-2.22775 l -4.15395,-1.91858 -3.66795,1.23023 c -9.06875,3.04167 -8.45693,2.70514 -10.40711,5.72426 -2.32832,3.60451 -2.51077,4.1148 -1.93562,5.41344 0.43977,0.99294 0.578,1.05873 2.22448,1.05873 0.96556,0 1.75558,-0.0939 1.75558,-0.20864 0,-0.11482 -0.33084,-0.71685 -0.73519,-1.33798 -0.40435,-0.62114 -0.67821,-1.16661 -0.60858,-1.21217 0.0696,-0.0456 0.82939,-0.37202 1.68836,-0.72548 0.85896,-0.35346 2.0374,-1.03797 2.61876,-1.52113 l 1.05702,-0.87848 1.38044,0.61966 c 0.75925,0.34082 1.89396,0.62471 2.52158,0.63086 1.63118,0.016 1.70239,0.70326 0.25888,2.49863 -0.6909,0.8593 -1.48816,1.98829 -1.77172,2.50885 -0.28355,0.52057 -0.70713,0.94652 -0.94131,0.94654 -0.23417,3e-5 -1.63857,0.73778 -3.12089,1.63946 -2.39011,1.45387 -2.69512,1.75277 -2.69512,2.64118 0,1.07699 1.03914,2.32241 1.93778,2.32241 0.3007,0 2.04539,-0.81714 3.8771,-1.81585 z m 0.57245,-7.68652 c 0.54839,-0.8568 0.94884,-1.63208 0.88991,-1.72288 -0.059,-0.0907 -0.71005,-0.35856 -1.44691,-0.59502 -1.2545,-0.4026 -1.40504,-0.3778 -2.36601,0.38988 -0.56445,0.45091 -1.3514,0.91779 -1.7488,1.03755 -0.5051,0.15218 -0.65077,0.38261 -0.48405,0.76565 0.13116,0.30136 0.31722,0.80794 0.41346,1.12572 0.13797,0.45556 0.55259,0.57555 1.96015,0.56733 1.75137,-0.0105 1.80404,-0.0399 2.78225,-1.56823 z m 17.8846,-10.34103 0.10277,-1.84999 -3.05871,-1.17262 c -1.68229,-0.64495 -3.93839,-1.54781 -5.01354,-2.00636 l -1.95483,-0.83373 -1.08806,1.06576 c -0.59842,0.58616 -1.08804,1.21559 -1.08804,1.39872 0,0.47574 10.46663,5.39973 11.30212,5.31704 0.59006,-0.0584 0.7111,-0.34933 0.79829,-1.91882 z"
       id="path23821-1"
       inkscape:connector-curvature="0" />
    <path
       style="fill:#4bbfa8;fill-opacity:1;stroke:#4bbfa8;stroke-width:0.9037382;stroke-opacity:1"
       d="m 590.16189,-280.41412 0,-7.14886 3.12051,0 c 2.45305,0 3.12052,-0.0878 3.12052,-0.41051 0,-0.22578 1.26714,-1.36514 2.81588,-2.5319 l 2.81589,-2.12138 4.12555,0 4.12557,0 2.86588,2.28414 2.86587,2.28414 0,7.39662 0,7.39662 -12.92783,0 -12.92784,0 z m 17.46719,1.11702 0.0815,-4.98932 -8.32856,0 -8.32854,0 0,5.06849 0,5.06849 8.24706,-0.0793 8.24708,-0.0793 z m 7.42826,-1.62389 0.08,-6.61319 -2.60289,-2.09949 -2.60286,-2.09948 -3.74707,0 -3.74707,0 -2.64575,2.01062 -2.64574,2.01062 5.72093,0.0809 5.72094,0.0809 0,6.7057 0,6.70572 3.19481,-0.0846 3.19481,-0.0846 z m -7.36114,-5.00371 c 0,-0.38652 -1.12273,-0.44681 -8.32137,-0.44681 -7.19862,0 -8.32136,0.0603 -8.32136,0.44681 0,0.38651 1.12274,0.4468 8.32136,0.4468 7.19864,0 8.32137,-0.0603 8.32137,-0.4468 z m -4.01208,-9.87891 c -3.491,-1.84875 -4.20873,-6.20655 -1.44827,-8.79346 3.46233,-3.24463 9.02664,-0.83518 9.02664,3.9087 0,1.72858 -0.44569,2.77424 -1.68231,3.94695 -1.55515,1.47476 -4.11371,1.88172 -5.89606,0.93781 z m 4.2082,-0.88697 c 3.13252,-1.48986 3.32109,-6.0227 0.32667,-7.85258 -3.81646,-2.33223 -8.32876,2.04453 -6.13718,5.95284 1.1825,2.10878 3.66469,2.92032 5.81051,1.89974 z"
       id="path23902-9"
       inkscape:connector-curvature="0"
       sodipodi:nodetypes="ccsssccccccccccccccccccccccccccccccccccssssssssssssss" />
    <path
       style="opacity:1;fill:#4bbfa8;fill-opacity:1;stroke:#ebebeb;stroke-width:1.98311818;stroke-linecap:round;stroke-linejoin:round;stroke-miterlimit:4;stroke-dasharray:none;stroke-opacity:1"
       id="path18666-9-3"
       sodipodi:type="arc"
       sodipodi:cx="341.05243"
       sodipodi:cy="98.588539"
       sodipodi:rx="14.441888"
       sodipodi:ry="14.75433"
       sodipodi:start="0"
       sodipodi:end="5.8146471"
       sodipodi:open="true"
       d="m 355.49432,98.588539 a 14.441888,14.75433 0 0 1 -12.75411,14.653231 14.441888,14.75433 0 0 1 -15.73518,-11.22828 14.441888,14.75433 0 0 1 9.07627,-17.277651 14.441888,14.75433 0 0 1 17.85661,7.189903" />
    <text
       sodipodi:linespacing="125%"
       id="text4136-3-15-8-3-5-59-6-90-9"
       y="-127.6468"
       x="316.99026"
       style="font-style:normal;font-weight:normal;font-size:40px;line-height:125%;font-family:sans-serif;letter-spacing:0px;word-spacing:0px;fill:#000000;fill-opacity:1;stroke:none;stroke-width:1px;stroke-linecap:butt;stroke-linejoin:miter;stroke-opacity:1"
       xml:space="preserve"
       transform="matrix(0.79030144,0.61271823,-0.61271824,0.79030143,0,0)"
       inkscape:transform-center-x="-1.9066852"
       inkscape:transform-center-y="-11.004692"><tspan
         style="font-style:normal;font-variant:normal;font-weight:normal;font-stretch:normal;font-size:20px;font-family:'Hi Melody';-inkscape-font-specification:'Hi Melody';fill:#ffffff;fill-opacity:1"
         y="-127.6468"
         x="316.99026"
         id="tspan4138-6-1-8-4-9-1-0-2-68"
         sodipodi:role="line">web</tspan></text>
    <text
       xml:space="preserve"
       style="font-style:normal;font-weight:normal;font-size:40px;line-height:125%;font-family:sans-serif;letter-spacing:0px;word-spacing:0px;fill:#000000;fill-opacity:1;stroke:none;stroke-width:1px;stroke-linecap:butt;stroke-linejoin:miter;stroke-opacity:1"
       x="358.98328"
       y="107.7725"
       id="text18972-5-3"
       sodipodi:linespacing="125%"><tspan
         sodipodi:role="line"
         id="tspan18974-7-9"
         x="358.98328"
         y="107.7725"
         style="font-style:normal;font-variant:normal;font-weight:normal;font-stretch:normal;font-size:25px;font-family:'Open Sans';-inkscape-font-specification:'Open Sans';fill:#141414;fill-opacity:1">fe <tspan
   style="fill:#4bbfa8;fill-opacity:1"
   id="tspan46402">en</tspan>dum</tspan></text>
    <path
       style="fill:#4bbfa8;fill-opacity:1"
       d="m 382.18785,110.03379 c -0.34067,-0.50896 -0.77277,-1.11882 -0.96023,-1.35524 -0.18746,-0.23643 -0.34083,-0.46199 -0.34083,-0.50124 0,-0.0393 -0.0883,-0.16722 -0.19617,-0.28436 -0.10789,-0.11714 -0.70449,-0.93457 -1.32577,-1.8165 -1.2997,-1.84498 -1.62025,-2.29169 -2.1881,-3.04931 -0.22583,-0.3013 -0.38599,-0.57793 -0.35591,-0.61472 0.0301,-0.0368 0.35553,0.16093 0.72321,0.43939 1.2396,0.9388 4.32262,2.94315 4.43615,2.88407 0.062,-0.0322 0.34857,-0.46787 0.63697,-0.96809 0.51117,-0.88663 1.57841,-2.60045 2.10083,-3.37362 1.34531,-1.991016 3.44481,-4.837326 4.822,-6.537216 1.0286,-1.26964 3.53513,-4.06077 3.96813,-4.4187 0.12396,-0.10247 0.36954,-0.33473 0.54573,-0.51614 0.63486,-0.65365 2.36557,-2.18992 2.4671,-2.18992 0.0366,0 -0.61535,0.85147 -1.44879,1.89215 -1.34299,1.67693 -3.29353,4.40368 -4.33362,6.05814 -0.19851,0.31575 -0.40811,0.64129 -0.46579,0.7234 -0.48568,0.69147 -3.28896,5.695196 -3.61658,6.455446 -0.0741,0.17194 -0.17667,0.37399 -0.22796,0.44898 -0.14233,0.20817 -1.12147,2.22763 -1.46556,3.0227 -0.16794,0.38805 -0.39105,0.87873 -0.49582,1.09039 -0.10477,0.21167 -0.4862,1.07757 -0.84761,1.92423 -0.36142,0.84665 -0.69197,1.55561 -0.73456,1.57545 -0.0426,0.0198 -0.35616,-0.38034 -0.69682,-0.88929 z"
       id="path19078-5-6"
       inkscape:connector-curvature="0" />
    <g
       style="display:inline"
       transform="translate(335.90587,-279.63157)"
       id="layer1-9"
       inkscape:label="Layer 1">
      <path
         inkscape:connector-curvature="0"
         id="path19078-5-1"
         d="m 290.14245,401.84702 c -0.34067,-0.50896 -0.77277,-1.11882 -0.96023,-1.35524 -0.18746,-0.23643 -0.34083,-0.46199 -0.34083,-0.50124 0,-0.0393 -0.0883,-0.16722 -0.19617,-0.28436 -0.10789,-0.11714 -0.70449,-0.93457 -1.32577,-1.8165 -1.2997,-1.84498 -1.62025,-2.29169 -2.1881,-3.04931 -0.22583,-0.3013 -0.38599,-0.57793 -0.35591,-0.61472 0.0301,-0.0368 0.35553,0.16093 0.72321,0.43939 1.2396,0.9388 4.32262,2.94315 4.43615,2.88407 0.062,-0.0322 0.34857,-0.46787 0.63697,-0.96809 0.51117,-0.88663 1.57841,-2.60045 2.10083,-3.37362 1.34531,-1.99103 3.44481,-4.83734 4.822,-6.53723 1.0286,-1.26964 3.53513,-4.06077 3.96813,-4.4187 0.12396,-0.10247 0.36954,-0.33473 0.54573,-0.51614 0.63486,-0.65365 2.36557,-2.18992 2.4671,-2.18992 0.0366,0 -0.61535,0.85147 -1.44879,1.89215 -1.34299,1.67693 -3.29353,4.40368 -4.33362,6.05814 -0.19851,0.31575 -0.40811,0.64129 -0.46579,0.7234 -0.48568,0.69147 -3.28896,5.69521 -3.61658,6.45546 -0.0741,0.17194 -0.17667,0.37399 -0.22796,0.44898 -0.14233,0.20817 -1.12147,2.22763 -1.46556,3.0227 -0.16794,0.38805 -0.39105,0.87873 -0.49582,1.09039 -0.10477,0.21167 -0.4862,1.07757 -0.84761,1.92423 -0.36142,0.84665 -0.69197,1.55561 -0.73456,1.57545 -0.0426,0.0198 -0.35616,-0.38034 -0.69682,-0.88929 z"
         style="fill:#4bbfa8;fill-opacity:1" />
      <path
         inkscape:connector-curvature="0"
         id="path19078-5-9"
         d="m 283.68373,401.84703 c 0.34067,-0.50896 0.77277,-1.11882 0.96023,-1.35524 0.18746,-0.23643 0.34083,-0.46199 0.34083,-0.50124 0,-0.0393 0.0883,-0.16722 0.19617,-0.28436 0.10789,-0.11714 0.70449,-0.93457 1.32577,-1.8165 1.2997,-1.84498 1.62025,-2.29169 2.1881,-3.04931 0.22583,-0.3013 0.38599,-0.57793 0.35591,-0.61472 -0.0301,-0.0368 -0.35553,0.16093 -0.72321,0.43939 -1.2396,0.9388 -4.32262,2.94315 -4.43615,2.88407 -0.062,-0.0322 -0.34857,-0.46787 -0.63697,-0.96809 -0.51117,-0.88663 -1.57841,-2.60045 -2.10083,-3.37362 -1.34531,-1.99103 -3.44481,-4.83734 -4.822,-6.53723 -1.0286,-1.26964 -3.53513,-4.06077 -3.96813,-4.4187 -0.12396,-0.10247 -0.36954,-0.33473 -0.54573,-0.51614 -0.63486,-0.65365 -2.36557,-2.18992 -2.4671,-2.18992 -0.0366,0 0.61535,0.85147 1.44879,1.89215 1.34299,1.67693 3.29353,4.40368 4.33362,6.05814 0.19851,0.31575 0.40811,0.64129 0.46579,0.7234 0.48568,0.69147 3.28896,5.69521 3.61658,6.45546 0.0741,0.17194 0.17667,0.37399 0.22796,0.44898 0.14233,0.20817 1.12147,2.22763 1.46556,3.0227 0.16794,0.38805 0.39105,0.87873 0.49582,1.09039 0.10477,0.21167 0.4862,1.07757 0.84761,1.92423 0.36142,0.84665 0.69197,1.55561 0.73456,1.57545 0.0426,0.0198 0.35616,-0.38034 0.69682,-0.88929 z"
         style="fill:#4bbfa8;fill-opacity:1" />
      <text
         sodipodi:linespacing="125%"
         id="text9612"
         y="401.00671"
         x="298.78247"
         style="font-style:normal;font-weight:normal;font-size:40px;line-height:125%;font-family:sans-serif;letter-spacing:0px;word-spacing:0px;fill:url(#linearGradient8241);fill-opacity:1;stroke:none;stroke-width:1px;stroke-linecap:butt;stroke-linejoin:miter;stroke-opacity:1"
         xml:space="preserve"><tspan
           style="font-style:normal;font-variant:normal;font-weight:normal;font-stretch:normal;font-size:25.00000191px;font-family:'Open Sans';-inkscape-font-specification:'Open Sans';fill:url(#linearGradient8241);fill-opacity:1"
           y="401.00671"
           x="298.78247"
           id="tspan9614"
           sodipodi:role="line"><tspan
   id="tspan9770"
   style="fill:#4bbfa8;fill-opacity:0.87761195">e</tspan><tspan
   style="fill:#4bbfa8;fill-opacity:0.69253732"
   id="tspan8391">b</tspan>fere<tspan
   id="tspan8395"
   style="fill:#141414;fill-opacity:0.86865671">ndum</tspan></tspan></text>
      <path
         style="fill:#141414;fill-opacity:0.53432833;stroke:#141414;stroke-width:0.63252306;stroke-miterlimit:4;stroke-dasharray:none;stroke-opacity:0.15522389"
         d="m 279.33448,389.93862 c -0.21311,-0.31722 0.11043,-0.51392 0.84532,-0.51392 l 0.73023,0 0.0502,-3.72591 0.0502,-3.72592 1.06089,-0.0511 1.06088,-0.0511 -0.10711,-0.83203 c -0.10088,-0.78362 -0.0447,-0.92833 0.96645,-2.48711 0.59046,-0.9103 1.28559,-1.78484 1.54473,-1.94342 0.25915,-0.15858 1.65124,-0.67637 3.09353,-1.15063 1.89355,-0.62265 2.60983,-0.93327 2.57728,-1.11766 -0.0248,-0.14045 0.37991,-0.73854 0.89932,-1.32909 1.089,-1.23813 0.75165,-1.23565 3.89418,-0.0287 1.1778,0.45235 2.45569,0.9412 2.83975,1.08635 l 0.6983,0.26391 0,1.20789 c 0,1.43827 -0.38905,1.98003 -1.3306,1.85291 -0.5222,-0.0705 -0.5797,-0.0127 -1.18302,1.18853 -0.98424,1.95972 -2.2668,3.73379 -3.36981,4.66118 l -1.00645,0.8462 0,2.66787 0,2.66786 0.83795,0 c 0.71382,0 0.83797,0.0507 0.83797,0.34262 0,0.3369 -0.12415,0.34261 -7.43753,0.34261 -4.75749,0 -7.47901,-0.0617 -7.55263,-0.1713 z m 12.72212,-2.63849 c 0.0328,-1.12141 0.009,-2.22429 -0.0528,-2.45085 -0.14565,-0.53388 -0.41657,-0.4569 -2.70696,0.7692 -2.19175,1.1733 -2.92852,1.25524 -3.74332,0.41633 -0.97846,-1.00743 -0.60359,-2.2175 0.91632,-2.95786 l 0.85987,-0.41885 -2.69414,-0.0857 c -1.48178,-0.0471 -2.757,-0.0618 -2.83381,-0.0327 -0.0768,0.0291 -0.13965,1.59138 -0.13965,3.47167 l 0,3.41872 5.16741,-0.0455 5.16741,-0.0455 0.0596,-2.03892 z m -3.18409,-2.24374 c 0.98082,-0.5182 1.81734,-0.94218 1.85891,-0.94218 0.0416,0 0.44698,-0.15564 0.90089,-0.34587 1.15115,-0.48243 1.97814,-1.197 2.94034,-2.54061 0.96776,-1.35137 2.40496,-3.92451 2.32116,-4.15578 -0.032,-0.0882 -1.05907,-0.6084 -2.28244,-1.1559 l -2.22431,-0.99549 -1.96407,0.63832 c -4.85602,1.57823 -4.52841,1.40361 -5.57267,2.97014 -1.24674,1.87026 -1.34444,2.13503 -1.03647,2.80886 0.23549,0.5152 0.3095,0.54934 1.19114,0.54934 0.51703,0 0.94006,-0.0487 0.94006,-0.10826 0,-0.0596 -0.17715,-0.37195 -0.39367,-0.69423 -0.21652,-0.32229 -0.36316,-0.60532 -0.32588,-0.62896 0.0373,-0.0237 0.44412,-0.19303 0.90407,-0.37643 0.45994,-0.1834 1.09096,-0.53857 1.40226,-0.78926 l 0.566,-0.45582 0.73918,0.32152 c 0.40655,0.17684 1.01416,0.32414 1.35023,0.32734 0.87344,0.008 0.91157,0.36489 0.13862,1.29645 -0.36996,0.44587 -0.79686,1.03166 -0.9487,1.30177 -0.15183,0.2701 -0.37865,0.49111 -0.50404,0.49112 -0.12539,2e-5 -0.8774,0.38281 -1.67114,0.85067 -1.27983,0.75437 -1.44315,0.90946 -1.44315,1.37043 0,0.55881 0.55643,1.20502 1.03762,1.20502 0.16101,0 1.09524,-0.42399 2.07606,-0.94219 z m 0.30653,-3.98829 c 0.29365,-0.44457 0.50807,-0.84683 0.47652,-0.89395 -0.0316,-0.0471 -0.38021,-0.18604 -0.77477,-0.30873 -0.67175,-0.2089 -0.75236,-0.19603 -1.26693,0.20229 -0.30224,0.23397 -0.72363,0.47621 -0.93642,0.53835 -0.27047,0.079 -0.34847,0.19853 -0.2592,0.39728 0.0702,0.15636 0.16986,0.41921 0.2214,0.5841 0.0739,0.23637 0.29589,0.29863 1.04959,0.29436 0.93781,-0.005 0.96601,-0.0207 1.48981,-0.8137 z m 9.57663,-5.36563 0.055,-0.9599 -1.63784,-0.60843 c -0.90081,-0.33464 -2.10888,-0.80311 -2.68459,-1.04104 l -1.04675,-0.43259 -0.58262,0.55299 c -0.32043,0.30414 -0.58261,0.63073 -0.58261,0.72575 0,0.24684 5.60455,2.80174 6.05192,2.75884 0.31596,-0.0303 0.38078,-0.18126 0.42746,-0.99562 z"
         id="path23821-1-9"
         inkscape:connector-curvature="0" />
    </g>
    <rect
       style="opacity:1;fill:#ffc664;fill-opacity:0.25490196;stroke:none;stroke-width:1.20000005;stroke-linecap:round;stroke-linejoin:round;stroke-miterlimit:4;stroke-dasharray:none;stroke-opacity:1"
       id="rect41903-5-0-5"
       width="269.87729"
       height="202.65878"
       x="841.99969"
       y="-209.25467" />
    <path
       style="display:inline;fill:#4bbfa8;fill-opacity:1"
       d="m 917.92961,-93.486494 c -0.34067,-0.50896 -0.77277,-1.11882 -0.96023,-1.35524 -0.18746,-0.23643 -0.34083,-0.46199 -0.34083,-0.50124 0,-0.0393 -0.0883,-0.16722 -0.19617,-0.28436 -0.10789,-0.11714 -0.70449,-0.93457 -1.32577,-1.8165 -1.2997,-1.84498 -1.62025,-2.29169 -2.1881,-3.049306 -0.22583,-0.3013 -0.38599,-0.57793 -0.35591,-0.61472 0.0301,-0.0368 0.35553,0.16093 0.72321,0.43939 1.2396,0.938796 4.32262,2.943146 4.43615,2.884066 0.062,-0.0322 0.34857,-0.46787 0.63697,-0.96809 0.51117,-0.88663 1.57841,-2.600446 2.10083,-3.373616 1.34531,-1.99103 3.44481,-4.83734 4.822,-6.53723 1.0286,-1.26964 3.53513,-4.06077 3.96813,-4.4187 0.12396,-0.10247 0.36954,-0.33473 0.54573,-0.51614 0.63486,-0.65365 2.36557,-2.18992 2.4671,-2.18992 0.0366,0 -0.61535,0.85147 -1.44879,1.89215 -1.34299,1.67693 -3.29353,4.40368 -4.33362,6.05814 -0.19851,0.31575 -0.40811,0.64129 -0.46579,0.7234 -0.48568,0.69147 -3.28896,5.69521 -3.61658,6.45546 -0.0741,0.17194 -0.17667,0.37399 -0.22796,0.44898 -0.14233,0.20817 -1.12147,2.227626 -1.46556,3.022696 -0.16794,0.38805 -0.39105,0.87873 -0.49582,1.09039 -0.10477,0.21167 -0.4862,1.07757 -0.84761,1.92423 -0.36142,0.84665 -0.69197,1.55561 -0.73456,1.57545 -0.0426,0.0198 -0.35616,-0.38034 -0.69682,-0.88929 z"
       id="path19078-5-1-4"
       inkscape:connector-curvature="0" />
    <path
       style="display:inline;fill:#4bbfa8;fill-opacity:1"
       d="m 911.47089,-93.486484 c 0.34067,-0.50896 0.77277,-1.11882 0.96023,-1.35524 0.18746,-0.23643 0.34083,-0.46199 0.34083,-0.50124 0,-0.0393 0.0883,-0.16722 0.19617,-0.28436 0.10789,-0.11714 0.70449,-0.93457 1.32577,-1.8165 1.2997,-1.84498 1.62025,-2.29169 2.1881,-3.049306 0.22583,-0.3013 0.38599,-0.57793 0.35591,-0.61472 -0.0301,-0.0368 -0.35553,0.16093 -0.72321,0.43939 -1.2396,0.938796 -4.32262,2.943146 -4.43615,2.884066 -0.062,-0.0322 -0.34857,-0.46787 -0.63697,-0.96809 -0.51117,-0.88663 -1.57841,-2.600446 -2.10083,-3.373616 -1.34531,-1.99103 -3.44481,-4.83734 -4.822,-6.53723 -1.0286,-1.26964 -3.53513,-4.06077 -3.96813,-4.4187 -0.12396,-0.10247 -0.36954,-0.33473 -0.54573,-0.51614 -0.63486,-0.65365 -2.36557,-2.18992 -2.4671,-2.18992 -0.0366,0 0.61535,0.85147 1.44879,1.89215 1.34299,1.67693 3.29353,4.40368 4.33362,6.05814 0.19851,0.31575 0.40811,0.64129 0.46579,0.7234 0.48568,0.69147 3.28896,5.69521 3.61658,6.45546 0.0741,0.17194 0.17667,0.37399 0.22796,0.44898 0.14233,0.20817 1.12147,2.227626 1.46556,3.022696 0.16794,0.38805 0.39105,0.87873 0.49582,1.09039 0.10477,0.21167 0.4862,1.07757 0.84761,1.92423 0.36142,0.84665 0.69197,1.55561 0.73456,1.57545 0.0426,0.0198 0.35616,-0.38034 0.69682,-0.88929 z"
       id="path19078-5-9-5"
       inkscape:connector-curvature="0" />
    <text
       xml:space="preserve"
       style="font-style:normal;font-weight:normal;font-size:40px;line-height:125%;font-family:sans-serif;letter-spacing:0px;word-spacing:0px;display:inline;fill:#000000;fill-opacity:1;stroke:none;stroke-width:1px;stroke-linecap:butt;stroke-linejoin:miter;stroke-opacity:1"
       x="944.9256"
       y="-98.928879"
       id="text9612-64"
       sodipodi:linespacing="125%"><tspan
         sodipodi:role="line"
         id="tspan9614-7"
         x="944.9256"
         y="-98.928879"
         style="font-style:normal;font-variant:normal;font-weight:300;font-stretch:normal;font-size:25.00000191px;font-family:'Open Sans';-inkscape-font-specification:'Open Sans Light';fill:#000000;fill-opacity:1;stroke:none;stroke-opacity:1"><tspan
           style="font-style:normal;font-variant:normal;font-weight:300;font-stretch:normal;font-size:22.50000191px;font-family:'Open Sans';-inkscape-font-specification:'Open Sans Light';fill:#000000;fill-opacity:1;stroke:none;stroke-opacity:1"
           id="tspan8114">fere</tspan><tspan
           style="font-style:normal;font-variant:normal;font-weight:300;font-stretch:normal;font-size:22.50000191px;font-family:'Open Sans';-inkscape-font-specification:'Open Sans Light';fill:#000000;fill-opacity:1;stroke:none;stroke-opacity:1"
           id="tspan8395-1">ndum</tspan></tspan></text>
    <path
       inkscape:connector-curvature="0"
       id="path23821-1-1"
       d="m 907.12164,-105.39489 c -0.21311,-0.31722 0.11043,-0.51392 0.84532,-0.51392 l 0.73023,0 0.0502,-3.72591 0.0502,-3.72592 1.06089,-0.0511 1.06088,-0.0511 -0.10711,-0.83203 c -0.10088,-0.78362 -0.0447,-0.92833 0.96645,-2.48711 0.59046,-0.9103 1.28559,-1.78484 1.54473,-1.94342 0.25915,-0.15858 1.65124,-0.67637 3.09353,-1.15063 1.89355,-0.62265 2.60983,-0.93327 2.57728,-1.11766 -0.0248,-0.14045 0.37991,-0.73854 0.89932,-1.32909 1.089,-1.23813 0.75165,-1.23565 3.89418,-0.0287 1.1778,0.45235 2.45569,0.9412 2.83975,1.08635 l 0.6983,0.26391 0,1.20789 c 0,1.43827 -0.38905,1.98003 -1.3306,1.85291 -0.5222,-0.0705 -0.5797,-0.0127 -1.18302,1.18853 -0.98424,1.95972 -2.2668,3.73379 -3.36981,4.66118 l -1.00645,0.8462 0,2.66787 0,2.66786 0.83795,0 c 0.71382,0 0.83797,0.0507 0.83797,0.34262 0,0.3369 -0.12415,0.34261 -7.43753,0.34261 -4.75749,0 -7.47901,-0.0617 -7.55263,-0.1713 z m 12.72212,-2.63849 c 0.0328,-1.12141 0.009,-2.22429 -0.0528,-2.45085 -0.14565,-0.53388 -0.41657,-0.4569 -2.70696,0.7692 -2.19175,1.1733 -2.92852,1.25524 -3.74332,0.41633 -0.97846,-1.00743 -0.60359,-2.2175 0.91632,-2.95786 l 0.85987,-0.41885 -2.69414,-0.0857 c -1.48178,-0.0471 -2.757,-0.0618 -2.83381,-0.0327 -0.0768,0.0291 -0.13965,1.59138 -0.13965,3.47167 l 0,3.41872 5.16741,-0.0455 5.16741,-0.0455 0.0596,-2.03892 z m -3.18409,-2.24374 c 0.98082,-0.5182 1.81734,-0.94218 1.85891,-0.94218 0.0416,0 0.44698,-0.15564 0.90089,-0.34587 1.15115,-0.48243 1.97814,-1.197 2.94034,-2.54061 0.96776,-1.35137 2.40496,-3.92451 2.32116,-4.15578 -0.032,-0.0882 -1.05907,-0.6084 -2.28244,-1.1559 l -2.22431,-0.99549 -1.96407,0.63832 c -4.85602,1.57823 -4.52841,1.40361 -5.57267,2.97014 -1.24674,1.87026 -1.34444,2.13503 -1.03647,2.80886 0.23549,0.5152 0.3095,0.54934 1.19114,0.54934 0.51703,0 0.94006,-0.0487 0.94006,-0.10826 0,-0.0596 -0.17715,-0.37195 -0.39367,-0.69423 -0.21652,-0.32229 -0.36316,-0.60532 -0.32588,-0.62896 0.0373,-0.0237 0.44412,-0.19303 0.90407,-0.37643 0.45994,-0.1834 1.09096,-0.53857 1.40226,-0.78926 l 0.566,-0.45582 0.73918,0.32152 c 0.40655,0.17684 1.01416,0.32414 1.35023,0.32734 0.87344,0.008 0.91157,0.36489 0.13862,1.29645 -0.36996,0.44587 -0.79686,1.03166 -0.9487,1.30177 -0.15183,0.2701 -0.37865,0.49111 -0.50404,0.49112 -0.12539,2e-5 -0.8774,0.38281 -1.67114,0.85067 -1.27983,0.75437 -1.44315,0.90946 -1.44315,1.37043 0,0.55881 0.55643,1.20502 1.03762,1.20502 0.16101,0 1.09524,-0.42399 2.07606,-0.94219 z m 0.30653,-3.98829 c 0.29365,-0.44457 0.50807,-0.84683 0.47652,-0.89395 -0.0316,-0.0471 -0.38021,-0.18604 -0.77477,-0.30873 -0.67175,-0.2089 -0.75236,-0.19603 -1.26693,0.20229 -0.30224,0.23397 -0.72363,0.47621 -0.93642,0.53835 -0.27047,0.079 -0.34847,0.19853 -0.2592,0.39728 0.0702,0.15636 0.16986,0.41921 0.2214,0.5841 0.0739,0.23637 0.29589,0.29863 1.04959,0.29436 0.93781,-0.005 0.96601,-0.0207 1.48981,-0.8137 z m 9.57663,-5.36563 0.055,-0.9599 -1.63784,-0.60843 c -0.90081,-0.33464 -2.10888,-0.80311 -2.68459,-1.04104 l -1.04675,-0.43259 -0.58262,0.55299 c -0.32043,0.30414 -0.58261,0.63073 -0.58261,0.72575 0,0.24684 5.60455,2.80174 6.05192,2.75884 0.31596,-0.0303 0.38078,-0.18126 0.42746,-0.99562 z"
       style="display:inline;fill:#141414;fill-opacity:0.77910449;stroke:none;stroke-width:0.63252306;stroke-miterlimit:4;stroke-dasharray:none;stroke-opacity:1" />
    <text
       xml:space="preserve"
       style="font-style:normal;font-weight:normal;line-height:125%;font-family:sans-serif;letter-spacing:0px;word-spacing:0px;baseline-shift:baseline;display:inline;fill:#4bbfa8;fill-opacity:1;stroke:none;stroke-width:1px;stroke-linecap:butt;stroke-linejoin:miter;stroke-opacity:1"
       x="923.58087"
       y="-95.390244"
       id="text9612-6"
       sodipodi:linespacing="125%"><tspan
         sodipodi:role="line"
         id="tspan9614-2"
         x="923.58087"
         y="-95.390244"
         style="font-style:normal;font-variant:normal;font-weight:normal;font-stretch:normal;font-family:'Open Sans';-inkscape-font-specification:'Open Sans';baseline-shift:baseline;fill:#4bbfa8;fill-opacity:1;stroke:none;stroke-opacity:1">eb</tspan></text>
  </g>
</svg>
