<?xml version="1.0" encoding="UTF-8" standalone="no"?>
<!-- Created with Inkscape (http://www.inkscape.org/) -->

<svg
   xmlns:dc="http://purl.org/dc/elements/1.1/"
   xmlns:cc="http://creativecommons.org/ns#"
   xmlns:rdf="http://www.w3.org/1999/02/22-rdf-syntax-ns#"
   xmlns:svg="http://www.w3.org/2000/svg"
   xmlns="http://www.w3.org/2000/svg"
   xmlns:sodipodi="http://sodipodi.sourceforge.net/DTD/sodipodi-0.dtd"
   xmlns:inkscape="http://www.inkscape.org/namespaces/inkscape"
   width="40.679249mm"
   height="8.8877296mm"
   viewBox="0 0 144.13909 31.491955"
   id="svg19310"
   version="1.1"
   inkscape:version="0.91 r13725"
   sodipodi:docname="logo.svg">
  <defs
     id="defs19312" />
  <sodipodi:namedview
     id="base"
     pagecolor="#ffffff"
     bordercolor="#666666"
     borderopacity="1.0"
     inkscape:pageopacity="0.0"
     inkscape:pageshadow="2"
     inkscape:zoom="3.2436335"
     inkscape:cx="106.67686"
     inkscape:cy="-34.23114"
     inkscape:document-units="px"
     inkscape:current-layer="layer1"
     showgrid="false"
     fit-margin-top="0"
     fit-margin-left="0"
     fit-margin-right="0"
     fit-margin-bottom="0"
     inkscape:window-width="1280"
     inkscape:window-height="1002"
     inkscape:window-x="-8"
     inkscape:window-y="-8"
     inkscape:window-maximized="1"
     showguides="true"
     inkscape:guide-bbox="true">
    <sodipodi:guide
       position="71.216441,-43.778063"
       orientation="0,1"
       id="guide9610" />
  </sodipodi:namedview>
  <metadata
     id="metadata19315">
    <rdf:RDF>
      <cc:Work
         rdf:about="">
        <dc:format>image/svg+xml</dc:format>
        <dc:type
           rdf:resource="http://purl.org/dc/dcmitype/StillImage" />
        <dc:title></dc:title>
      </cc:Work>
    </rdf:RDF>
  </metadata>
  <g
     inkscape:label="Layer 1"
     inkscape:groupmode="layer"
     id="layer1"
     transform="translate(-269.42773,-371.21104)">
    <path
       style="opacity:1;fill:#4bbfa8;fill-opacity:1;stroke:#ebebeb;stroke-width:1.98311818;stroke-linecap:round;stroke-linejoin:round;stroke-miterlimit:4;stroke-dasharray:none;stroke-opacity:1"
       id="path18666-9-3"
       sodipodi:type="arc"
       sodipodi:cx="284.86279"
       sodipodi:cy="386.95639"
       sodipodi:rx="14.441888"
       sodipodi:ry="14.75433"
       sodipodi:start="0"
       sodipodi:end="5.8146471"
       sodipodi:open="true"
       d="m 299.30468,386.95639 a 14.441888,14.75433 0 0 1 -12.75411,14.65323 14.441888,14.75433 0 0 1 -15.73517,-11.22828 14.441888,14.75433 0 0 1 9.07626,-17.27765 14.441888,14.75433 0 0 1 17.85661,7.1899" />
    <text
       sodipodi:linespacing="125%"
       id="text4136-3-15-8-3-5-59-6-90-9"
       y="134.67917"
       x="449.27182"
       style="font-style:normal;font-weight:normal;font-size:40px;line-height:125%;font-family:sans-serif;letter-spacing:0px;word-spacing:0px;fill:#000000;fill-opacity:1;stroke:none;stroke-width:1px;stroke-linecap:butt;stroke-linejoin:miter;stroke-opacity:1"
       xml:space="preserve"
       transform="matrix(0.79030144,0.61271824,-0.61271824,0.79030144,0,0)"
       inkscape:transform-center-x="-1.9066852"
       inkscape:transform-center-y="-11.004692"><tspan
         style="font-style:normal;font-variant:normal;font-weight:normal;font-stretch:normal;font-size:20px;font-family:'Hi Melody';-inkscape-font-specification:'Hi Melody';fill:#ffffff;fill-opacity:1"
         y="134.67917"
         x="449.27182"
         id="tspan4138-6-1-8-4-9-1-0-2-68"
         sodipodi:role="line">web</tspan></text>
    <text
       xml:space="preserve"
       style="font-style:normal;font-weight:normal;font-size:40px;line-height:125%;font-family:sans-serif;letter-spacing:0px;word-spacing:0px;fill:#000000;fill-opacity:1;stroke:none;stroke-width:1px;stroke-linecap:butt;stroke-linejoin:miter;stroke-opacity:1"
       x="302.79361"
       y="396.14035"
       id="text18972-5"
       sodipodi:linespacing="125%"><tspan
         sodipodi:role="line"
         id="tspan18974-7"
         x="302.79361"
         y="396.14035"
         style="font-style:normal;font-variant:normal;font-weight:normal;font-stretch:normal;font-size:25px;font-family:'Open Sans';-inkscape-font-specification:'Open Sans';fill:#141414;fill-opacity:1">fe <tspan
   style="fill:#4bbfa8;fill-opacity:1"
   id="tspan46402">en</tspan>dum</tspan></text>
    <path
       style="fill:#4bbfa8;fill-opacity:1"
       d="m 325.9982,398.40166 c -0.34067,-0.50896 -0.77277,-1.11882 -0.96023,-1.35524 -0.18746,-0.23643 -0.34083,-0.46199 -0.34083,-0.50124 0,-0.0393 -0.0883,-0.16722 -0.19617,-0.28436 -0.10789,-0.11714 -0.70449,-0.93457 -1.32577,-1.8165 -1.2997,-1.84498 -1.62025,-2.29169 -2.1881,-3.04931 -0.22583,-0.3013 -0.38599,-0.57793 -0.35591,-0.61472 0.0301,-0.0368 0.35553,0.16093 0.72321,0.43939 1.2396,0.9388 4.32262,2.94315 4.43615,2.88407 0.062,-0.0322 0.34857,-0.46787 0.63697,-0.96809 0.51117,-0.88663 1.57841,-2.60045 2.10083,-3.37362 1.34531,-1.99102 3.44481,-4.83733 4.822,-6.53722 1.0286,-1.26964 3.53513,-4.06077 3.96813,-4.4187 0.12396,-0.10247 0.36954,-0.33473 0.54573,-0.51614 0.63486,-0.65365 2.36557,-2.18992 2.4671,-2.18992 0.0366,0 -0.61535,0.85147 -1.44879,1.89215 -1.34299,1.67693 -3.29353,4.40368 -4.33362,6.05814 -0.19851,0.31575 -0.40811,0.64129 -0.46579,0.7234 -0.48568,0.69147 -3.28896,5.6952 -3.61658,6.45545 -0.0741,0.17194 -0.17667,0.37399 -0.22796,0.44898 -0.14233,0.20817 -1.12147,2.22763 -1.46556,3.0227 -0.16794,0.38805 -0.39105,0.87873 -0.49582,1.09039 -0.10477,0.21167 -0.4862,1.07757 -0.84761,1.92423 -0.36142,0.84665 -0.69197,1.55561 -0.73456,1.57545 -0.0426,0.0198 -0.35616,-0.38034 -0.69682,-0.88929 z"
       id="path19078-5"
       inkscape:connector-curvature="0" />
  </g>
</svg>
