<?xml version="1.0" encoding="UTF-8" standalone="no"?>
<!-- Created with Inkscape (http://www.inkscape.org/) -->

<svg
   xmlns:dc="http://purl.org/dc/elements/1.1/"
   xmlns:cc="http://creativecommons.org/ns#"
   xmlns:rdf="http://www.w3.org/1999/02/22-rdf-syntax-ns#"
   xmlns:svg="http://www.w3.org/2000/svg"
   xmlns="http://www.w3.org/2000/svg"
   xmlns:sodipodi="http://sodipodi.sourceforge.net/DTD/sodipodi-0.dtd"
   xmlns:inkscape="http://www.inkscape.org/namespaces/inkscape"
   width="205.76343"
   height="35.949669"
   viewBox="0 0 205.76343 35.94967"
   id="svg19310"
   version="1.1"
   inkscape:version="0.91 r13725"
   sodipodi:docname="logo-new3.svg">
  <defs
     id="defs19312" />
  <sodipodi:namedview
     id="base"
     pagecolor="#ffffff"
     bordercolor="#666666"
     borderopacity="1.0"
     inkscape:pageopacity="0.0"
     inkscape:pageshadow="2"
     inkscape:zoom="1"
     inkscape:cx="277.58659"
     inkscape:cy="-137.79345"
     inkscape:document-units="px"
     inkscape:current-layer="layer1"
     showgrid="false"
     fit-margin-top="0"
     fit-margin-left="0"
     fit-margin-right="0"
     fit-margin-bottom="0"
     inkscape:window-width="1304"
     inkscape:window-height="746"
     inkscape:window-x="1334"
     inkscape:window-y="-8"
     inkscape:window-maximized="1"
     units="px" />
  <metadata
     id="metadata19315">
    <rdf:RDF>
      <cc:Work
         rdf:about="">
        <dc:format>image/svg+xml</dc:format>
        <dc:type
           rdf:resource="http://purl.org/dc/dcmitype/StillImage" />
        <dc:title></dc:title>
      </cc:Work>
    </rdf:RDF>
  </metadata>
  <g
     inkscape:label="Layer 1"
     inkscape:groupmode="layer"
     id="layer1"
     transform="translate(-266.05117,-367.94965)">
    <text
       xml:space="preserve"
       style="font-style:normal;font-weight:normal;font-size:40px;line-height:125%;font-family:sans-serif;letter-spacing:0px;word-spacing:0px;fill:#000000;fill-opacity:1;stroke:none;stroke-width:1px;stroke-linecap:butt;stroke-linejoin:miter;stroke-opacity:1"
       x="312.79361"
       y="396.14035"
       id="text18972-5"
       sodipodi:linespacing="125%"><tspan
         sodipodi:role="line"
         id="tspan18974-7"
         x="312.79361"
         y="396.14035"
         style="font-style:normal;font-variant:normal;font-weight:normal;font-stretch:normal;font-size:25px;font-family:'Open Sans';-inkscape-font-specification:'Open Sans';fill:#141414;fill-opacity:1">web<tspan
   style="fill:#4bbfa8;fill-opacity:1"
   id="tspan23919">fe en</tspan>dum</tspan></text>
    <path
       style="fill:#4bbfa8;fill-opacity:1"
       d="m 383.9982,396.40166 c -0.34067,-0.50896 -0.77277,-1.11882 -0.96023,-1.35524 -0.18746,-0.23643 -0.34083,-0.46199 -0.34083,-0.50124 0,-0.0393 -0.0883,-0.16722 -0.19617,-0.28436 -0.10789,-0.11714 -0.70449,-0.93457 -1.32577,-1.8165 -1.2997,-1.84498 -1.62025,-2.29169 -2.1881,-3.04931 -0.22583,-0.3013 -0.38599,-0.57793 -0.35591,-0.61472 0.0301,-0.0368 0.35553,0.16093 0.72321,0.43939 1.2396,0.9388 4.32262,2.94315 4.43615,2.88407 0.062,-0.0322 0.34857,-0.46787 0.63697,-0.96809 0.51117,-0.88663 1.57841,-2.60045 2.10083,-3.37362 1.34531,-1.99102 3.44481,-4.83733 4.822,-6.53722 1.0286,-1.26964 3.53513,-4.06077 3.96813,-4.4187 0.12396,-0.10247 0.36954,-0.33473 0.54573,-0.51614 0.63486,-0.65365 2.36557,-2.18992 2.4671,-2.18992 0.0366,0 -0.61535,0.85147 -1.44879,1.89215 -1.34299,1.67693 -3.29353,4.40368 -4.33362,6.05814 -0.19851,0.31575 -0.40811,0.64129 -0.46579,0.7234 -0.48568,0.69147 -3.28896,5.6952 -3.61658,6.45545 -0.0741,0.17194 -0.17667,0.37399 -0.22796,0.44898 -0.14233,0.20817 -1.12147,2.22763 -1.46556,3.0227 -0.16794,0.38805 -0.39105,0.87873 -0.49582,1.09039 -0.10477,0.21167 -0.4862,1.07757 -0.84761,1.92423 -0.36142,0.84665 -0.69197,1.55561 -0.73456,1.57545 -0.0426,0.0198 -0.35616,-0.38034 -0.69682,-0.88929 z"
       id="path19078-5"
       inkscape:connector-curvature="0" />
    <path
       style="fill:#4bbfa8;fill-opacity:1;stroke:#4bbfa8;stroke-width:1.20000005;stroke-miterlimit:4;stroke-dasharray:none;stroke-opacity:1"
       d="m 266.77155,402.96922 c -0.39799,-0.61137 0.20623,-0.99047 1.57865,-0.99047 l 1.36373,0 0.0938,-7.18084 0.0937,-7.18086 1.98123,-0.0985 1.98123,-0.0985 -0.20003,-1.60355 c -0.18841,-1.51025 -0.0834,-1.78915 1.80486,-4.79334 1.1027,-1.7544 2.40087,-3.43988 2.88483,-3.74552 0.48396,-0.30562 3.08372,-1.30354 5.77724,-2.21757 3.53626,-1.20001 4.87392,-1.79866 4.81313,-2.15404 -0.0463,-0.27069 0.7095,-1.42336 1.6795,-2.56151 2.03375,-2.38623 1.40373,-2.38144 7.27249,-0.0554 2.19957,0.8718 4.58605,1.81396 5.3033,2.0937 l 1.3041,0.50863 0,2.32792 c 0,2.77195 -0.72656,3.81607 -2.48493,3.57107 -0.97522,-0.13588 -1.08262,-0.0245 -2.20933,2.29063 -1.83808,3.77692 -4.23331,7.19603 -6.29321,8.98336 l -1.87957,1.63086 0,5.14171 0,5.1417 1.56491,0 c 1.33307,0 1.56492,0.0978 1.56492,0.66031 0,0.6493 -0.23185,0.66031 -13.88978,0.66031 -8.88473,0 -13.96723,-0.11897 -14.10471,-0.33015 z m 23.75887,-5.0851 c 0.0612,-2.16125 0.0168,-4.2868 -0.0985,-4.72346 -0.27202,-1.02893 -0.77797,-0.88056 -5.05532,1.48247 -4.09316,2.26126 -5.46908,2.41919 -6.99074,0.80237 -1.8273,-1.94159 -1.12722,-4.27373 1.71125,-5.7006 l 1.60583,-0.80723 -5.03138,-0.16508 c -2.76726,-0.0908 -5.14876,-0.11917 -5.29221,-0.0631 -0.14344,0.0561 -0.26081,3.067 -0.26081,6.69085 l 0,6.58881 9.65027,-0.0877 9.65028,-0.0877 0.11135,-3.92956 z m -5.94636,-4.32429 c 1.8317,-0.99872 3.39392,-1.81585 3.47156,-1.81585 0.0777,0 0.83474,-0.29996 1.68243,-0.66658 2.1498,-0.92977 3.69423,-2.30693 5.49116,-4.89644 1.80732,-2.60447 4.49132,-7.56361 4.33482,-8.00932 -0.0597,-0.17006 -1.97783,-1.17256 -4.26251,-2.22775 l -4.15395,-1.91858 -3.66795,1.23023 c -9.06875,3.04167 -8.45693,2.70514 -10.40711,5.72426 -2.32832,3.60451 -2.51077,4.1148 -1.93562,5.41344 0.43977,0.99294 0.578,1.05873 2.22448,1.05873 0.96556,0 1.75558,-0.0939 1.75558,-0.20864 0,-0.11482 -0.33084,-0.71685 -0.73519,-1.33798 -0.40435,-0.62114 -0.67821,-1.16661 -0.60858,-1.21217 0.0696,-0.0456 0.82939,-0.37202 1.68836,-0.72548 0.85896,-0.35346 2.0374,-1.03797 2.61876,-1.52113 l 1.05702,-0.87848 1.38044,0.61966 c 0.75925,0.34082 1.89396,0.62471 2.52158,0.63086 1.63118,0.016 1.70239,0.70326 0.25888,2.49863 -0.6909,0.8593 -1.48816,1.98829 -1.77172,2.50885 -0.28355,0.52057 -0.70713,0.94652 -0.94131,0.94654 -0.23417,3e-5 -1.63857,0.73778 -3.12089,1.63946 -2.39011,1.45387 -2.69512,1.75277 -2.69512,2.64118 0,1.07699 1.03914,2.32241 1.93778,2.32241 0.3007,0 2.04539,-0.81714 3.8771,-1.81585 z m 0.57245,-7.68652 c 0.54839,-0.8568 0.94884,-1.63208 0.88991,-1.72288 -0.059,-0.0907 -0.71005,-0.35856 -1.44691,-0.59502 -1.2545,-0.4026 -1.40504,-0.3778 -2.36601,0.38988 -0.56445,0.45091 -1.3514,0.91779 -1.7488,1.03755 -0.5051,0.15218 -0.65077,0.38261 -0.48405,0.76565 0.13116,0.30136 0.31722,0.80794 0.41346,1.12572 0.13797,0.45556 0.55259,0.57555 1.96015,0.56733 1.75137,-0.0105 1.80404,-0.0399 2.78225,-1.56823 z m 17.8846,-10.34103 0.10277,-1.84999 -3.05871,-1.17262 c -1.68229,-0.64495 -3.93839,-1.54781 -5.01354,-2.00636 l -1.95483,-0.83373 -1.08806,1.06576 c -0.59842,0.58616 -1.08804,1.21559 -1.08804,1.39872 0,0.47574 10.46663,5.39973 11.30212,5.31704 0.59006,-0.0584 0.7111,-0.34933 0.79829,-1.91882 z"
       id="path23821"
       inkscape:connector-curvature="0" />
  </g>
</svg>
