<?xml version="1.0" encoding="UTF-8" standalone="no"?>
<!-- Created with Inkscape (http://www.inkscape.org/) -->

<svg
   xmlns:dc="http://purl.org/dc/elements/1.1/"
   xmlns:cc="http://creativecommons.org/ns#"
   xmlns:rdf="http://www.w3.org/1999/02/22-rdf-syntax-ns#"
   xmlns:svg="http://www.w3.org/2000/svg"
   xmlns="http://www.w3.org/2000/svg"
   xmlns:sodipodi="http://sodipodi.sourceforge.net/DTD/sodipodi-0.dtd"
   xmlns:inkscape="http://www.inkscape.org/namespaces/inkscape"
   width="8.8526335mm"
   height="9.5173988mm"
   viewBox="0 0 31.367599 33.723067"
   id="svg2"
   version="1.1"
   inkscape:version="0.91 r13725"
   sodipodi:docname="logo-hero.svg">
  <defs
     id="defs4" />
  <sodipodi:namedview
     id="base"
     pagecolor="#ffffff"
     bordercolor="#666666"
     borderopacity="1.0"
     inkscape:pageopacity="0.0"
     inkscape:pageshadow="2"
     inkscape:zoom="0.70737049"
     inkscape:cx="105.06058"
     inkscape:cy="-73.68331"
     inkscape:document-units="px"
     inkscape:current-layer="layer1-4"
     showgrid="false"
     fit-margin-top="0"
     fit-margin-left="0"
     fit-margin-right="0"
     fit-margin-bottom="0"
     inkscape:window-width="1280"
     inkscape:window-height="1002"
     inkscape:window-x="-8"
     inkscape:window-y="-8"
     inkscape:window-maximized="1" />
  <metadata
     id="metadata7">
    <rdf:RDF>
      <cc:Work
         rdf:about="">
        <dc:format>image/svg+xml</dc:format>
        <dc:type
           rdf:resource="http://purl.org/dc/dcmitype/StillImage" />
        <dc:title></dc:title>
      </cc:Work>
    </rdf:RDF>
  </metadata>
  <g
     inkscape:label="Layer 1"
     inkscape:groupmode="layer"
     id="layer1"
     transform="translate(-81.565505,-424.95583)">
    <g
       transform="translate(-621.03598,122.51418)"
       id="layer1-4"
       inkscape:label="Layer 1">
      <path
         sodipodi:nodetypes="ccsssccccccccccccccccccccccccccccccccccssssssssssssss"
         inkscape:connector-curvature="0"
         id="path23902"
         d="m 703.09081,328.54281 0,-7.13256 3.66763,0 c 2.88314,0 3.66764,-0.0876 3.66764,-0.40957 0,-0.22527 1.48931,-1.36203 3.30959,-2.52614 l 3.30959,-2.11654 4.84889,0 4.8489,0 3.36836,2.27893 3.36835,2.27893 0,7.37976 0,7.37977 -15.19448,0 -15.19447,0 z m 20.52972,1.11448 0.0958,-4.97794 -9.7888,0 -9.78879,0 0,5.05692 0,5.05694 9.69302,-0.0791 9.69304,-0.0791 z m 8.73064,-1.62019 0.094,-6.59811 -3.05925,-2.09471 -3.05922,-2.09469 -4.40404,0 -4.40404,0 -3.10963,2.00603 -3.10962,2.00603 6.72398,0.0808 6.72399,0.0808 0,6.69041 0,6.69044 3.75495,-0.0844 3.75496,-0.0844 z m -8.65176,-4.9923 c 0,-0.38565 -1.31958,-0.4458 -9.78035,-0.4458 -8.46075,0 -9.78035,0.0602 -9.78035,0.4458 0,0.38563 1.3196,0.44578 9.78035,0.44578 8.46077,0 9.78035,-0.0602 9.78035,-0.44578 z m -4.71552,-9.85639 c -4.10308,-1.84454 -4.94665,-6.19241 -1.70219,-8.77342 4.06937,-3.23723 10.60928,-0.83328 10.60928,3.89979 0,1.72464 -0.52383,2.76791 -1.97727,3.93795 -1.82782,1.4714 -4.83497,1.87743 -6.92982,0.93568 z m 4.94603,-0.88495 c 3.68174,-1.48647 3.90337,-6.00897 0.38394,-7.83469 -4.4856,-2.3269 -9.78904,2.03987 -7.21321,5.93927 1.38983,2.10398 4.30722,2.91367 6.82927,1.89542 z"
         style="fill:#4bbfa8;fill-opacity:1;stroke:#4bbfa8;stroke-width:0.97864908;stroke-opacity:1" />
    </g>
  </g>
</svg>
